<svg width="140" height="88" viewBox="0 0 140 88" fill="none" xmlns="http://www.w3.org/2000/svg">
<path d="M63.6835 37.1C64.5335 36.45 65.4835 35.9375 66.5335 35.5625C67.5835 35.1875 68.6835 35 69.8335 35C70.9835 35 72.0835 35.1875 73.1335 35.5625C74.1835 35.9375 75.1335 36.45 75.9835 37.1C76.5668 36.4167 77.021 35.6417 77.346 34.775C77.671 33.9083 77.8335 32.9833 77.8335 32C77.8335 29.7833 77.0543 27.8958 75.496 26.3375C73.9377 24.7792 72.0502 24 69.8335 24C67.6168 24 65.7293 24.7792 64.171 26.3375C62.6127 27.8958 61.8335 29.7833 61.8335 32C61.8335 32.9833 61.996 33.9083 62.321 34.775C62.646 35.6417 63.1002 36.4167 63.6835 37.1ZM69.8335 33C68.8502 33 68.021 32.6625 67.346 31.9875C66.671 31.3125 66.3335 30.4833 66.3335 29.5C66.3335 28.5167 66.671 27.6875 67.346 27.0125C68.021 26.3375 68.8502 26 69.8335 26C70.8168 26 71.646 26.3375 72.321 27.0125C72.996 27.6875 73.3335 28.5167 73.3335 29.5C73.3335 30.4833 72.996 31.3125 72.321 31.9875C71.646 32.6625 70.8168 33 69.8335 33ZM69.8335 42C68.4502 42 67.1502 41.7375 65.9335 41.2125C64.7168 40.6875 63.6585 39.975 62.7585 39.075C61.8585 38.175 61.146 37.1167 60.621 35.9C60.096 34.6833 59.8335 33.3833 59.8335 32C59.8335 30.6167 60.096 29.3167 60.621 28.1C61.146 26.8833 61.8585 25.825 62.7585 24.925C63.6585 24.025 64.7168 23.3125 65.9335 22.7875C67.1502 22.2625 68.4502 22 69.8335 22C71.2168 22 72.5168 22.2625 73.7335 22.7875C74.9502 23.3125 76.0085 24.025 76.9085 24.925C77.8085 25.825 78.521 26.8833 79.046 28.1C79.571 29.3167 79.8335 30.6167 79.8335 32C79.8335 33.3833 79.571 34.6833 79.046 35.9C78.521 37.1167 77.8085 38.175 76.9085 39.075C76.0085 39.975 74.9502 40.6875 73.7335 41.2125C72.5168 41.7375 71.2168 42 69.8335 42Z" fill="white"/>
<path d="M47.3489 68.108C47.1009 68.108 46.8929 68.052 46.7249 67.94C46.5569 67.82 46.4529 67.66 46.4129 67.46C46.3729 67.252 46.4089 67.02 46.5209 66.764L49.5089 60.332C49.6529 60.02 49.8289 59.792 50.0369 59.648C50.2529 59.504 50.4969 59.432 50.7689 59.432C51.0409 59.432 51.2769 59.504 51.4769 59.648C51.6849 59.792 51.8649 60.02 52.0169 60.332L55.0049 66.764C55.1329 67.02 55.1769 67.252 55.1369 67.46C55.1049 67.668 55.0049 67.828 54.8369 67.94C54.6769 68.052 54.4769 68.108 54.2369 68.108C53.9169 68.108 53.6689 68.036 53.4929 67.892C53.3249 67.748 53.1729 67.516 53.0369 67.196L52.3889 65.672L53.2289 66.284H48.2849L49.1369 65.672L48.4889 67.196C48.3449 67.516 48.1969 67.748 48.0449 67.892C47.8929 68.036 47.6609 68.108 47.3489 68.108ZM50.7449 61.844L49.3529 65.168L49.0169 64.592H52.5089L52.1729 65.168L50.7689 61.844H50.7449ZM58.9146 68.132C58.2506 68.132 57.6706 68.008 57.1746 67.76C56.6866 67.512 56.3066 67.156 56.0346 66.692C55.7626 66.22 55.6266 65.668 55.6266 65.036C55.6266 64.556 55.7026 64.128 55.8546 63.752C56.0066 63.368 56.2266 63.044 56.5146 62.78C56.8106 62.516 57.1586 62.316 57.5586 62.18C57.9666 62.036 58.4186 61.964 58.9146 61.964C59.1466 61.964 59.3906 61.988 59.6466 62.036C59.9026 62.076 60.1666 62.156 60.4386 62.276C60.6306 62.348 60.7626 62.46 60.8346 62.612C60.9146 62.756 60.9466 62.912 60.9306 63.08C60.9226 63.248 60.8746 63.4 60.7866 63.536C60.7066 63.672 60.5906 63.764 60.4386 63.812C60.2946 63.86 60.1306 63.84 59.9466 63.752C59.8186 63.688 59.6826 63.644 59.5386 63.62C59.4026 63.588 59.2706 63.572 59.1426 63.572C58.9266 63.572 58.7346 63.604 58.5666 63.668C58.4066 63.732 58.2706 63.828 58.1586 63.956C58.0466 64.076 57.9586 64.228 57.8946 64.412C57.8386 64.596 57.8106 64.804 57.8106 65.036C57.8106 65.5 57.9266 65.864 58.1586 66.128C58.3906 66.392 58.7186 66.524 59.1426 66.524C59.2706 66.524 59.4026 66.512 59.5386 66.488C59.6746 66.456 59.8106 66.408 59.9466 66.344C60.1306 66.256 60.2946 66.24 60.4386 66.296C60.5826 66.344 60.6986 66.436 60.7866 66.572C60.8746 66.708 60.9226 66.86 60.9306 67.028C60.9386 67.188 60.9026 67.344 60.8226 67.496C60.7426 67.64 60.6066 67.748 60.4146 67.82C60.1506 67.94 59.8906 68.02 59.6346 68.06C59.3866 68.108 59.1466 68.132 58.9146 68.132ZM64.61 68.132C63.946 68.132 63.366 68.008 62.87 67.76C62.382 67.512 62.002 67.156 61.73 66.692C61.458 66.22 61.322 65.668 61.322 65.036C61.322 64.556 61.398 64.128 61.55 63.752C61.702 63.368 61.922 63.044 62.21 62.78C62.506 62.516 62.854 62.316 63.254 62.18C63.662 62.036 64.114 61.964 64.61 61.964C64.842 61.964 65.086 61.988 65.342 62.036C65.598 62.076 65.862 62.156 66.134 62.276C66.326 62.348 66.458 62.46 66.53 62.612C66.61 62.756 66.642 62.912 66.626 63.08C66.618 63.248 66.57 63.4 66.482 63.536C66.402 63.672 66.286 63.764 66.134 63.812C65.99 63.86 65.826 63.84 65.642 63.752C65.514 63.688 65.378 63.644 65.234 63.62C65.098 63.588 64.966 63.572 64.838 63.572C64.622 63.572 64.43 63.604 64.262 63.668C64.102 63.732 63.966 63.828 63.854 63.956C63.742 64.076 63.654 64.228 63.59 64.412C63.534 64.596 63.506 64.804 63.506 65.036C63.506 65.5 63.622 65.864 63.854 66.128C64.086 66.392 64.414 66.524 64.838 66.524C64.966 66.524 65.098 66.512 65.234 66.488C65.37 66.456 65.506 66.408 65.642 66.344C65.826 66.256 65.99 66.24 66.134 66.296C66.278 66.344 66.394 66.436 66.482 66.572C66.57 66.708 66.618 66.86 66.626 67.028C66.634 67.188 66.598 67.344 66.518 67.496C66.438 67.64 66.302 67.748 66.11 67.82C65.846 67.94 65.586 68.02 65.33 68.06C65.082 68.108 64.842 68.132 64.61 68.132ZM70.2813 68.132C69.6253 68.132 69.0533 68.008 68.5653 67.76C68.0773 67.512 67.6973 67.156 67.4253 66.692C67.1533 66.228 67.0173 65.68 67.0173 65.048C67.0173 64.568 67.0933 64.14 67.2453 63.764C67.3973 63.38 67.6173 63.056 67.9053 62.792C68.1933 62.52 68.5373 62.316 68.9373 62.18C69.3373 62.036 69.7853 61.964 70.2813 61.964C70.9373 61.964 71.5093 62.088 71.9973 62.336C72.4853 62.584 72.8613 62.94 73.1253 63.404C73.3973 63.86 73.5333 64.408 73.5333 65.048C73.5333 65.52 73.4573 65.948 73.3053 66.332C73.1533 66.716 72.9333 67.044 72.6453 67.316C72.3653 67.58 72.0213 67.784 71.6133 67.928C71.2133 68.064 70.7693 68.132 70.2813 68.132ZM70.2813 66.56C70.4973 66.56 70.6893 66.508 70.8573 66.404C71.0253 66.292 71.1533 66.128 71.2413 65.912C71.3373 65.688 71.3853 65.4 71.3853 65.048C71.3853 64.512 71.2813 64.128 71.0733 63.896C70.8653 63.656 70.6013 63.536 70.2813 63.536C70.0653 63.536 69.8733 63.588 69.7053 63.692C69.5373 63.796 69.4053 63.96 69.3093 64.184C69.2133 64.4 69.1653 64.688 69.1653 65.048C69.1653 65.576 69.2693 65.96 69.4773 66.2C69.6853 66.44 69.9533 66.56 70.2813 66.56ZM76.72 68.132C76.208 68.132 75.788 68.04 75.46 67.856C75.132 67.664 74.884 67.38 74.716 67.004C74.556 66.628 74.476 66.152 74.476 65.576V63.056C74.476 62.704 74.568 62.44 74.752 62.264C74.936 62.08 75.2 61.988 75.544 61.988C75.888 61.988 76.152 62.08 76.336 62.264C76.52 62.44 76.612 62.704 76.612 63.056V65.636C76.612 65.924 76.672 66.14 76.792 66.284C76.912 66.428 77.1 66.5 77.356 66.5C77.644 66.5 77.88 66.396 78.064 66.188C78.248 65.98 78.34 65.704 78.34 65.36V63.056C78.34 62.704 78.432 62.44 78.616 62.264C78.8 62.08 79.064 61.988 79.408 61.988C79.752 61.988 80.016 62.08 80.2 62.264C80.384 62.44 80.476 62.704 80.476 63.056V67.028C80.476 67.748 80.132 68.108 79.444 68.108C79.108 68.108 78.848 68.016 78.664 67.832C78.48 67.648 78.388 67.38 78.388 67.028V66.332L78.58 66.92C78.404 67.312 78.156 67.612 77.836 67.82C77.524 68.028 77.152 68.132 76.72 68.132ZM82.775 68.108C82.439 68.108 82.179 68.016 81.995 67.832C81.811 67.648 81.719 67.38 81.719 67.028V63.056C81.719 62.712 81.807 62.448 81.983 62.264C82.167 62.08 82.427 61.988 82.763 61.988C83.099 61.988 83.355 62.08 83.531 62.264C83.707 62.448 83.795 62.712 83.795 63.056V63.62L83.663 63.128C83.855 62.752 84.127 62.464 84.479 62.264C84.839 62.064 85.247 61.964 85.703 61.964C86.175 61.964 86.563 62.056 86.867 62.24C87.171 62.416 87.399 62.696 87.551 63.08C87.703 63.456 87.779 63.932 87.779 64.508V67.028C87.779 67.38 87.687 67.648 87.503 67.832C87.319 68.016 87.055 68.108 86.711 68.108C86.367 68.108 86.103 68.016 85.919 67.832C85.735 67.648 85.643 67.38 85.643 67.028V64.592C85.643 64.232 85.579 63.976 85.451 63.824C85.331 63.672 85.151 63.596 84.911 63.596C84.591 63.596 84.335 63.7 84.143 63.908C83.951 64.108 83.855 64.38 83.855 64.724V67.028C83.855 67.748 83.495 68.108 82.775 68.108ZM92.0924 68.132C91.4924 68.132 90.9964 68.04 90.6044 67.856C90.2204 67.672 89.9324 67.396 89.7404 67.028C89.5484 66.652 89.4524 66.184 89.4524 65.624V63.668H89.0444C88.7884 63.668 88.5884 63.6 88.4444 63.464C88.3084 63.328 88.2404 63.132 88.2404 62.876C88.2404 62.62 88.3084 62.428 88.4444 62.3C88.5884 62.164 88.7884 62.096 89.0444 62.096H89.4524V61.352C89.4524 61 89.5444 60.732 89.7284 60.548C89.9124 60.364 90.1764 60.272 90.5204 60.272C90.8644 60.272 91.1284 60.364 91.3124 60.548C91.4964 60.732 91.5884 61 91.5884 61.352V62.096H92.5724C92.8364 62.096 93.0364 62.164 93.1724 62.3C93.3164 62.428 93.3884 62.62 93.3884 62.876C93.3884 63.132 93.3164 63.328 93.1724 63.464C93.0364 63.6 92.8364 63.668 92.5724 63.668H91.5884V65.552C91.5884 65.848 91.6564 66.068 91.7924 66.212C91.9364 66.348 92.1604 66.416 92.4644 66.416C92.5764 66.416 92.6844 66.404 92.7884 66.38C92.8924 66.356 92.9884 66.344 93.0764 66.344C93.2044 66.336 93.3084 66.376 93.3884 66.464C93.4684 66.544 93.5084 66.732 93.5084 67.028C93.5084 67.268 93.4724 67.472 93.4004 67.64C93.3284 67.8 93.2004 67.916 93.0164 67.988C92.9044 68.028 92.7524 68.06 92.5604 68.084C92.3684 68.116 92.2124 68.132 92.0924 68.132Z" fill="white"/>
</svg>
