<svg width="240" height="240" viewBox="0 0 240 240" fill="none" xmlns="http://www.w3.org/2000/svg">
<path fill-rule="evenodd" clip-rule="evenodd" d="M213.536 185.997L213.531 186.022C209.08 207.425 185.561 219.506 157.617 218.921C155.382 218.954 154.01 219.277 152.934 220.023C152.867 220.07 152.798 220.115 152.728 220.159L131.226 233.521L131.203 233.534L124.019 238.052C122.263 239.156 119.591 239.308 117.129 238.445C114.668 237.582 112.846 235.853 112.432 233.988L110.751 226.417L105.343 203.714C104.942 202.309 103.935 201.029 102.973 200.347C102.869 200.273 102.767 200.198 102.668 200.12C84.2858 185.742 78.3648 168.368 86.0004 151C97.1705 125.593 128.617 118.802 157.617 131C183.769 142 218 166 213.536 185.997Z" fill="black" fill-opacity="0.6"/>
<path fill-rule="evenodd" clip-rule="evenodd" d="M211.201 79.6963L211.208 79.7458C217.412 122.395 194.632 159.948 159.348 176.79C156.571 178.285 155.032 179.765 154.096 181.844C154.038 181.973 153.977 182.101 153.913 182.228L134.36 220.867L134.34 220.907L127.836 233.916C126.246 237.095 122.987 239.093 119.432 239.068C115.878 239.042 112.648 236.997 111.104 233.795L104.837 220.797L85.5828 182.057C84.3091 179.7 82.3446 177.967 80.7663 177.317C80.595 177.247 80.4259 177.171 80.2591 177.091C49.3529 162.153 26.9946 130.627 26.9946 93.4369C26.9946 39.0308 74.1328 -4.25218 129.542 1.91276C171.13 5.8517 204.986 38.5229 211.201 79.6963Z" fill="white"/>
<path fill-rule="evenodd" clip-rule="evenodd" d="M155.15 168.466C187.073 153.32 207.578 119.534 201.985 81.0872C196.393 44.0387 165.869 14.6795 128.587 11.1843C78.7232 5.5921 36.3154 44.5047 36.3154 93.4368C36.3154 126.757 56.3543 155.184 84.3154 168.699C88.2766 170.33 91.7717 173.825 93.8688 177.786L113.209 216.699L119.5 229.747L126.024 216.699L145.597 178.019C147.694 173.359 151.189 170.563 155.15 168.466Z" fill="#FE2C55"/>
<path d="M154.918 168.233C150.956 170.33 147.461 173.126 145.364 177.786L126.024 216.699L119.5 229.748L112.976 216.699L111.345 212.971L129.054 177.786C130.918 173.359 134.646 170.33 138.607 168.233C170.529 153.32 191.034 119.301 185.442 80.8544C179.85 44.0388 149.558 14.4466 112.044 10.9514C111.811 10.9514 111.345 10.9514 111.112 10.9514C116.937 10.2524 122.762 10.4854 128.821 10.9514C166.335 14.4466 196.626 43.8058 202.219 80.8544C207.345 119.301 186.84 153.32 154.918 168.233Z" fill="black" fill-opacity="0.1"/>
<path d="M120.5 148L113.323 141.526C87.83 118.621 71 103.515 71 84.9755C71 69.8692 82.979 58 98.225 58C106.838 58 115.104 61.9728 120.5 68.2507C125.896 61.9728 134.162 58 142.775 58C158.021 58 170 69.8692 170 84.9755C170 103.515 153.17 118.621 127.678 141.575L120.5 148Z" fill="white"/>
</svg>
