<svg width="140" height="88" viewBox="0 0 140 88" fill="none" xmlns="http://www.w3.org/2000/svg">
<path d="M73.3335 34H72.5435L72.2635 33.73C73.2435 32.59 73.8335 31.11 73.8335 29.5C73.8335 25.91 70.9235 23 67.3335 23C63.7435 23 60.8335 25.91 60.8335 29.5C60.8335 33.09 63.7435 36 67.3335 36C68.9435 36 70.4235 35.41 71.5635 34.43L71.8335 34.71V35.5L76.8335 40.49L78.3235 39L73.3335 34ZM67.3335 34C64.8435 34 62.8335 31.99 62.8335 29.5C62.8335 27.01 64.8435 25 67.3335 25C69.8235 25 71.8335 27.01 71.8335 29.5C71.8335 31.99 69.8235 34 67.3335 34Z" fill="white"/>
<path d="M50.0033 68C49.6273 68 49.3393 67.904 49.1393 67.712C48.9473 67.512 48.8513 67.228 48.8513 66.86V60.68C48.8513 60.312 48.9473 60.032 49.1393 59.84C49.3393 59.64 49.6273 59.54 50.0033 59.54H52.9313C53.5393 59.54 54.0553 59.632 54.4793 59.816C54.9113 59.992 55.2393 60.244 55.4633 60.572C55.6873 60.9 55.7993 61.284 55.7993 61.724C55.7993 62.22 55.6553 62.644 55.3673 62.996C55.0873 63.348 54.7033 63.588 54.2153 63.716V63.524C54.7913 63.628 55.2353 63.86 55.5473 64.22C55.8673 64.58 56.0273 65.04 56.0273 65.6C56.0273 66.344 55.7593 66.932 55.2233 67.364C54.6953 67.788 53.9713 68 53.0513 68H50.0033ZM50.9633 66.38H52.7513C53.1593 66.38 53.4553 66.304 53.6393 66.152C53.8313 65.992 53.9273 65.756 53.9273 65.444C53.9273 65.132 53.8313 64.9 53.6393 64.748C53.4553 64.596 53.1593 64.52 52.7513 64.52H50.9633V66.38ZM50.9633 62.9H52.5353C52.9353 62.9 53.2273 62.828 53.4113 62.684C53.6033 62.54 53.6993 62.32 53.6993 62.024C53.6993 61.728 53.6033 61.512 53.4113 61.376C53.2273 61.232 52.9353 61.16 52.5353 61.16H50.9633V62.9ZM58.2251 68.108C57.8731 68.108 57.6011 68.016 57.4091 67.832C57.2251 67.648 57.1331 67.38 57.1331 67.028V63.056C57.1331 62.712 57.2211 62.448 57.3971 62.264C57.5811 62.08 57.8411 61.988 58.1771 61.988C58.5131 61.988 58.7691 62.08 58.9451 62.264C59.1211 62.448 59.2091 62.712 59.2091 63.056V63.548H59.0891C59.1691 63.068 59.3731 62.688 59.7011 62.408C60.0371 62.128 60.4531 61.98 60.9491 61.964C61.1811 61.956 61.3531 62.016 61.4651 62.144C61.5851 62.264 61.6491 62.492 61.6571 62.828C61.6571 63.116 61.5971 63.344 61.4771 63.512C61.3571 63.68 61.1291 63.78 60.7931 63.812L60.5171 63.836C60.0931 63.876 59.7851 63.996 59.5931 64.196C59.4011 64.388 59.3051 64.676 59.3051 65.06V67.028C59.3051 67.38 59.2131 67.648 59.0291 67.832C58.8451 68.016 58.5771 68.108 58.2251 68.108ZM65.2188 68.132C64.5628 68.132 63.9908 68.008 63.5028 67.76C63.0148 67.512 62.6348 67.156 62.3628 66.692C62.0908 66.228 61.9548 65.68 61.9548 65.048C61.9548 64.568 62.0308 64.14 62.1828 63.764C62.3348 63.38 62.5548 63.056 62.8428 62.792C63.1308 62.52 63.4748 62.316 63.8748 62.18C64.2748 62.036 64.7228 61.964 65.2188 61.964C65.8748 61.964 66.4468 62.088 66.9348 62.336C67.4228 62.584 67.7988 62.94 68.0628 63.404C68.3348 63.86 68.4708 64.408 68.4708 65.048C68.4708 65.52 68.3948 65.948 68.2428 66.332C68.0908 66.716 67.8708 67.044 67.5828 67.316C67.3028 67.58 66.9588 67.784 66.5508 67.928C66.1508 68.064 65.7068 68.132 65.2188 68.132ZM65.2188 66.56C65.4348 66.56 65.6268 66.508 65.7948 66.404C65.9628 66.292 66.0908 66.128 66.1788 65.912C66.2748 65.688 66.3228 65.4 66.3228 65.048C66.3228 64.512 66.2188 64.128 66.0108 63.896C65.8028 63.656 65.5388 63.536 65.2188 63.536C65.0028 63.536 64.8108 63.588 64.6428 63.692C64.4748 63.796 64.3428 63.96 64.2468 64.184C64.1508 64.4 64.1028 64.688 64.1028 65.048C64.1028 65.576 64.2068 65.96 64.4148 66.2C64.6228 66.44 64.8908 66.56 65.2188 66.56ZM71.8652 68.108C71.5932 68.108 71.3572 68.044 71.1572 67.916C70.9572 67.78 70.7972 67.572 70.6772 67.292L69.0452 63.344C68.9412 63.096 68.9052 62.872 68.9372 62.672C68.9692 62.464 69.0652 62.3 69.2252 62.18C69.3932 62.052 69.6212 61.988 69.9092 61.988C70.1572 61.988 70.3612 62.048 70.5212 62.168C70.6812 62.28 70.8252 62.504 70.9532 62.84L72.1052 65.864H71.8532L73.0652 62.612C73.1452 62.396 73.2532 62.24 73.3892 62.144C73.5332 62.04 73.7132 61.988 73.9292 61.988C74.1612 61.988 74.3452 62.04 74.4812 62.144C74.6172 62.248 74.7252 62.404 74.8052 62.612L76.0172 65.864H75.8012L76.9652 62.768C77.0772 62.464 77.2212 62.26 77.3972 62.156C77.5732 62.044 77.7612 61.988 77.9612 61.988C78.2332 61.988 78.4412 62.052 78.5852 62.18C78.7292 62.308 78.8092 62.476 78.8252 62.684C78.8492 62.892 78.8092 63.116 78.7052 63.356L77.0852 67.28C76.9732 67.56 76.8172 67.768 76.6172 67.904C76.4172 68.04 76.1812 68.108 75.9092 68.108C75.6292 68.108 75.3892 68.04 75.1892 67.904C74.9972 67.768 74.8412 67.56 74.7212 67.28L73.4012 63.98H74.2772L73.0292 67.256C72.9172 67.544 72.7652 67.76 72.5732 67.904C72.3812 68.04 72.1452 68.108 71.8652 68.108ZM81.95 68.132C81.598 68.132 81.238 68.104 80.87 68.048C80.51 68 80.182 67.908 79.886 67.772C79.686 67.692 79.542 67.584 79.454 67.448C79.374 67.312 79.334 67.168 79.334 67.016C79.342 66.864 79.386 66.728 79.466 66.608C79.554 66.48 79.666 66.392 79.802 66.344C79.946 66.288 80.106 66.292 80.282 66.356C80.618 66.476 80.918 66.564 81.182 66.62C81.454 66.668 81.714 66.692 81.962 66.692C82.258 66.692 82.47 66.652 82.598 66.572C82.726 66.484 82.79 66.372 82.79 66.236C82.79 66.116 82.746 66.024 82.658 65.96C82.578 65.896 82.462 65.852 82.31 65.828L80.978 65.612C80.482 65.524 80.098 65.344 79.826 65.072C79.554 64.792 79.418 64.428 79.418 63.98C79.418 63.564 79.534 63.208 79.766 62.912C80.006 62.608 80.33 62.376 80.738 62.216C81.154 62.048 81.63 61.964 82.166 61.964C82.526 61.964 82.854 61.992 83.15 62.048C83.446 62.096 83.734 62.188 84.014 62.324C84.19 62.396 84.314 62.5 84.386 62.636C84.458 62.772 84.486 62.916 84.47 63.068C84.454 63.212 84.402 63.348 84.314 63.476C84.234 63.596 84.122 63.68 83.978 63.728C83.834 63.768 83.666 63.756 83.474 63.692C83.21 63.588 82.974 63.512 82.766 63.464C82.566 63.416 82.378 63.392 82.202 63.392C81.874 63.392 81.642 63.436 81.506 63.524C81.37 63.612 81.302 63.724 81.302 63.86C81.302 63.964 81.338 64.052 81.41 64.124C81.482 64.188 81.594 64.232 81.746 64.256L83.078 64.484C83.59 64.564 83.982 64.74 84.254 65.012C84.534 65.276 84.674 65.636 84.674 66.092C84.674 66.74 84.426 67.244 83.93 67.604C83.434 67.956 82.774 68.132 81.95 68.132ZM88.7671 68.132C88.0471 68.132 87.4231 68.008 86.8951 67.76C86.3751 67.504 85.9751 67.144 85.6951 66.68C85.4151 66.216 85.2751 65.668 85.2751 65.036C85.2751 64.428 85.4071 63.896 85.6711 63.44C85.9431 62.976 86.3111 62.616 86.7751 62.36C87.2471 62.096 87.7831 61.964 88.3831 61.964C88.8231 61.964 89.2231 62.036 89.5831 62.18C89.9431 62.316 90.2511 62.52 90.5071 62.792C90.7631 63.056 90.9551 63.376 91.0831 63.752C91.2191 64.128 91.2871 64.548 91.2871 65.012C91.2871 65.172 91.2431 65.292 91.1551 65.372C91.0671 65.444 90.9271 65.48 90.7351 65.48H87.0631V64.472H89.7271L89.5351 64.628C89.5351 64.332 89.4951 64.092 89.4151 63.908C89.3351 63.724 89.2151 63.584 89.0551 63.488C88.9031 63.392 88.7111 63.344 88.4791 63.344C88.2311 63.344 88.0151 63.404 87.8311 63.524C87.6551 63.636 87.5191 63.804 87.4231 64.028C87.3271 64.252 87.2791 64.532 87.2791 64.868V64.976C87.2791 65.544 87.4031 65.952 87.6511 66.2C87.9071 66.44 88.2991 66.56 88.8271 66.56C89.0031 66.56 89.2031 66.54 89.4271 66.5C89.6591 66.452 89.8791 66.388 90.0871 66.308C90.2951 66.228 90.4751 66.216 90.6271 66.272C90.7791 66.32 90.8951 66.408 90.9751 66.536C91.0631 66.656 91.1111 66.796 91.1191 66.956C91.1271 67.108 91.0911 67.26 91.0111 67.412C90.9311 67.556 90.7991 67.668 90.6151 67.748C90.3351 67.876 90.0351 67.972 89.7151 68.036C89.4031 68.1 89.0871 68.132 88.7671 68.132Z" fill="white"/>
</svg>
