<svg width="100" height="40" viewBox="0 0 100 40" fill="none" xmlns="http://www.w3.org/2000/svg">
<path d="M2 0.5H98C98.8284 0.5 99.5 1.17157 99.5 2V38C99.5 38.8284 98.8284 39.5 98 39.5H2C1.17157 39.5 0.5 38.8284 0.5 38V2C0.5 1.17157 1.17157 0.5 2 0.5Z" fill="#26272B"/>
<path d="M2 0.5H98C98.8284 0.5 99.5 1.17157 99.5 2V38C99.5 38.8284 98.8284 39.5 98 39.5H2C1.17157 39.5 0.5 38.8284 0.5 38V2C0.5 1.17157 1.17157 0.5 2 0.5Z" stroke="#3F3F46"/>
<path d="M26.56 25C26.0587 25 25.6747 24.872 25.408 24.616C25.152 24.3493 25.024 23.9707 25.024 23.48V15.24C25.024 14.7493 25.152 14.376 25.408 14.12C25.6747 13.8533 26.0587 13.72 26.56 13.72H29.696C31.6587 13.72 33.1733 14.2107 34.24 15.192C35.3173 16.1733 35.856 17.56 35.856 19.352C35.856 20.248 35.7173 21.048 35.44 21.752C35.1627 22.4453 34.7627 23.0373 34.24 23.528C33.7173 24.008 33.072 24.376 32.304 24.632C31.5467 24.8773 30.6773 25 29.696 25H26.56ZM27.968 22.616H29.504C30.0693 22.616 30.5547 22.5467 30.96 22.408C31.376 22.2693 31.7173 22.0667 31.984 21.8C32.2613 21.5333 32.464 21.1973 32.592 20.792C32.7307 20.3867 32.8 19.9067 32.8 19.352C32.8 18.2427 32.528 17.4267 31.984 16.904C31.44 16.3707 30.6133 16.104 29.504 16.104H27.968V22.616ZM41.6981 25.176C40.7381 25.176 39.9061 25.0107 39.2021 24.68C38.5088 24.3387 37.9755 23.8587 37.6021 23.24C37.2288 22.6213 37.0421 21.8907 37.0421 21.048C37.0421 20.2373 37.2181 19.528 37.5701 18.92C37.9328 18.3013 38.4235 17.8213 39.0421 17.48C39.6715 17.128 40.3861 16.952 41.1861 16.952C41.7728 16.952 42.3061 17.048 42.7861 17.24C43.2661 17.4213 43.6768 17.6933 44.0181 18.056C44.3595 18.408 44.6155 18.8347 44.7861 19.336C44.9675 19.8373 45.0581 20.3973 45.0581 21.016C45.0581 21.2293 44.9995 21.3893 44.8821 21.496C44.7648 21.592 44.5781 21.64 44.3221 21.64H39.4261V20.296H42.9781L42.7221 20.504C42.7221 20.1093 42.6688 19.7893 42.5621 19.544C42.4555 19.2987 42.2955 19.112 42.0821 18.984C41.8795 18.856 41.6235 18.792 41.3141 18.792C40.9835 18.792 40.6955 18.872 40.4501 19.032C40.2155 19.1813 40.0341 19.4053 39.9061 19.704C39.7781 20.0027 39.7141 20.376 39.7141 20.824V20.968C39.7141 21.7253 39.8795 22.2693 40.2101 22.6C40.5515 22.92 41.0741 23.08 41.7781 23.08C42.0128 23.08 42.2795 23.0533 42.5781 23C42.8875 22.936 43.1808 22.8507 43.4581 22.744C43.7355 22.6373 43.9755 22.6213 44.1781 22.696C44.3808 22.76 44.5355 22.8773 44.6421 23.048C44.7595 23.208 44.8235 23.3947 44.8341 23.608C44.8448 23.8107 44.7968 24.0133 44.6901 24.216C44.5835 24.408 44.4075 24.5573 44.1621 24.664C43.7888 24.8347 43.3888 24.9627 42.9621 25.048C42.5461 25.1333 42.1248 25.176 41.6981 25.176ZM49.2771 25.176C48.2531 25.176 47.4958 24.904 47.0051 24.36C46.5251 23.8053 46.2851 22.9733 46.2851 21.864V15.016C46.2851 14.5467 46.4078 14.1893 46.6531 13.944C46.8985 13.6987 47.2451 13.576 47.6931 13.576C48.1518 13.576 48.5038 13.6987 48.7491 13.944C49.0051 14.1893 49.1331 14.5467 49.1331 15.016V21.768C49.1331 22.1627 49.2078 22.4507 49.3571 22.632C49.5171 22.8133 49.7198 22.904 49.9651 22.904C50.0398 22.904 50.1145 22.8987 50.1891 22.888C50.2745 22.8667 50.3651 22.8507 50.4611 22.84C50.6425 22.84 50.7758 22.9093 50.8611 23.048C50.9571 23.1867 51.0051 23.4693 51.0051 23.896C51.0051 24.2693 50.9305 24.552 50.7811 24.744C50.6318 24.9253 50.4025 25.0427 50.0931 25.096C50.0078 25.1067 49.8851 25.1227 49.7251 25.144C49.5651 25.1653 49.4158 25.176 49.2771 25.176ZM56.0575 25.176C55.0975 25.176 54.2655 25.0107 53.5615 24.68C52.8682 24.3387 52.3348 23.8587 51.9615 23.24C51.5882 22.6213 51.4015 21.8907 51.4015 21.048C51.4015 20.2373 51.5775 19.528 51.9295 18.92C52.2922 18.3013 52.7828 17.8213 53.4015 17.48C54.0308 17.128 54.7455 16.952 55.5455 16.952C56.1322 16.952 56.6655 17.048 57.1455 17.24C57.6255 17.4213 58.0362 17.6933 58.3775 18.056C58.7188 18.408 58.9748 18.8347 59.1455 19.336C59.3268 19.8373 59.4175 20.3973 59.4175 21.016C59.4175 21.2293 59.3588 21.3893 59.2415 21.496C59.1242 21.592 58.9375 21.64 58.6815 21.64H53.7855V20.296H57.3375L57.0815 20.504C57.0815 20.1093 57.0282 19.7893 56.9215 19.544C56.8148 19.2987 56.6548 19.112 56.4415 18.984C56.2388 18.856 55.9828 18.792 55.6735 18.792C55.3428 18.792 55.0548 18.872 54.8095 19.032C54.5748 19.1813 54.3935 19.4053 54.2655 19.704C54.1375 20.0027 54.0735 20.376 54.0735 20.824V20.968C54.0735 21.7253 54.2388 22.2693 54.5695 22.6C54.9108 22.92 55.4335 23.08 56.1375 23.08C56.3722 23.08 56.6388 23.0533 56.9375 23C57.2468 22.936 57.5402 22.8507 57.8175 22.744C58.0948 22.6373 58.3348 22.6213 58.5375 22.696C58.7402 22.76 58.8948 22.8773 59.0015 23.048C59.1188 23.208 59.1828 23.3947 59.1935 23.608C59.2042 23.8107 59.1562 24.0133 59.0495 24.216C58.9428 24.408 58.7668 24.5573 58.5215 24.664C58.1482 24.8347 57.7482 24.9627 57.3215 25.048C56.9055 25.1333 56.4842 25.176 56.0575 25.176ZM64.71 25.176C63.91 25.176 63.2487 25.0533 62.726 24.808C62.214 24.5627 61.83 24.1947 61.574 23.704C61.318 23.2027 61.19 22.5787 61.19 21.832V19.224H60.646C60.3047 19.224 60.038 19.1333 59.846 18.952C59.6647 18.7707 59.574 18.5093 59.574 18.168C59.574 17.8267 59.6647 17.5707 59.846 17.4C60.038 17.2187 60.3047 17.128 60.646 17.128H61.19V16.136C61.19 15.6667 61.3127 15.3093 61.558 15.064C61.8033 14.8187 62.1553 14.696 62.614 14.696C63.0727 14.696 63.4247 14.8187 63.67 15.064C63.9153 15.3093 64.038 15.6667 64.038 16.136V17.128H65.35C65.702 17.128 65.9687 17.2187 66.15 17.4C66.342 17.5707 66.438 17.8267 66.438 18.168C66.438 18.5093 66.342 18.7707 66.15 18.952C65.9687 19.1333 65.702 19.224 65.35 19.224H64.038V21.736C64.038 22.1307 64.1287 22.424 64.31 22.616C64.502 22.7973 64.8007 22.888 65.206 22.888C65.3553 22.888 65.4993 22.872 65.638 22.84C65.7767 22.808 65.9047 22.792 66.022 22.792C66.1927 22.7813 66.3313 22.8347 66.438 22.952C66.5447 23.0587 66.598 23.3093 66.598 23.704C66.598 24.024 66.55 24.296 66.454 24.52C66.358 24.7333 66.1873 24.888 65.942 24.984C65.7927 25.0373 65.59 25.08 65.334 25.112C65.078 25.1547 64.87 25.176 64.71 25.176ZM71.6044 25.176C70.6444 25.176 69.8124 25.0107 69.1084 24.68C68.415 24.3387 67.8817 23.8587 67.5084 23.24C67.135 22.6213 66.9484 21.8907 66.9484 21.048C66.9484 20.2373 67.1244 19.528 67.4764 18.92C67.839 18.3013 68.3297 17.8213 68.9484 17.48C69.5777 17.128 70.2924 16.952 71.0924 16.952C71.679 16.952 72.2124 17.048 72.6924 17.24C73.1724 17.4213 73.583 17.6933 73.9244 18.056C74.2657 18.408 74.5217 18.8347 74.6924 19.336C74.8737 19.8373 74.9644 20.3973 74.9644 21.016C74.9644 21.2293 74.9057 21.3893 74.7884 21.496C74.671 21.592 74.4844 21.64 74.2284 21.64H69.3324V20.296H72.8844L72.6284 20.504C72.6284 20.1093 72.575 19.7893 72.4684 19.544C72.3617 19.2987 72.2017 19.112 71.9884 18.984C71.7857 18.856 71.5297 18.792 71.2204 18.792C70.8897 18.792 70.6017 18.872 70.3564 19.032C70.1217 19.1813 69.9404 19.4053 69.8124 19.704C69.6844 20.0027 69.6204 20.376 69.6204 20.824V20.968C69.6204 21.7253 69.7857 22.2693 70.1164 22.6C70.4577 22.92 70.9804 23.08 71.6844 23.08C71.919 23.08 72.1857 23.0533 72.4844 23C72.7937 22.936 73.087 22.8507 73.3644 22.744C73.6417 22.6373 73.8817 22.6213 74.0844 22.696C74.287 22.76 74.4417 22.8773 74.5484 23.048C74.6657 23.208 74.7297 23.3947 74.7404 23.608C74.751 23.8107 74.703 24.0133 74.5964 24.216C74.4897 24.408 74.3137 24.5573 74.0684 24.664C73.695 24.8347 73.295 24.9627 72.8684 25.048C72.4524 25.1333 72.031 25.176 71.6044 25.176Z" fill="#06AED4"/>
</svg>
