<svg width="1440" height="600" viewBox="0 0 1440 600" fill="none" xmlns="http://www.w3.org/2000/svg">
<g clip-path="url(#clip0_16007_7710)">
<circle cx="1053" cy="52" r="17" transform="rotate(-180 1053 52)" fill="#26272B"/>
<circle cx="960" cy="52" r="17" transform="rotate(-180 960 52)" fill="#26272B"/>
<circle cx="870" cy="52" r="17" transform="rotate(-180 870 52)" fill="#26272B"/>
<circle cx="778" cy="52" r="17" transform="rotate(-180 778 52)" fill="#26272B"/>
<circle cx="1098.5" cy="51.5" r="17.5" transform="rotate(-180 1098.5 51.5)" fill="#26272B"/>
<circle cx="1005.5" cy="51.5" r="17.5" transform="rotate(-180 1005.5 51.5)" fill="#26272B"/>
<circle cx="915.5" cy="51.5" r="17.5" transform="rotate(-180 915.5 51.5)" fill="#26272B"/>
<circle cx="823.5" cy="51.5" r="17.5" transform="rotate(-180 823.5 51.5)" fill="#26272B"/>
<circle cx="1144.5" cy="51.5" r="17.5" transform="rotate(-180 1144.5 51.5)" fill="#26272B"/>
<circle cx="1190.5" cy="51.5" r="17.5" transform="rotate(-180 1190.5 51.5)" fill="#26272B"/>
<circle cx="1236.5" cy="51.5" r="17.5" transform="rotate(-180 1236.5 51.5)" fill="#26272B"/>
<circle cx="730" cy="98" r="14" transform="rotate(-180 730 98)" fill="#26272B"/>
<circle cx="1098" cy="98" r="16" transform="rotate(-180 1098 98)" fill="#26272B"/>
<circle cx="961" cy="98" r="16" transform="rotate(-180 961 98)" fill="#26272B"/>
<circle cx="821" cy="98" r="16" transform="rotate(-180 821 98)" fill="#26272B"/>
<circle cx="1144" cy="98" r="16" transform="rotate(-180 1144 98)" fill="#26272B"/>
<circle cx="1007" cy="98" r="16" transform="rotate(-180 1007 98)" fill="#26272B"/>
<circle cx="867" cy="98" r="16" transform="rotate(-180 867 98)" fill="#26272B"/>
<circle cx="1192" cy="98" r="16" transform="rotate(-180 1192 98)" fill="#26272B"/>
<circle cx="1237" cy="98" r="16" transform="rotate(-180 1237 98)" fill="#26272B"/>
<circle cx="1053" cy="98" r="16" transform="rotate(-180 1053 98)" fill="#26272B"/>
<circle cx="916" cy="98" r="16" transform="rotate(-180 916 98)" fill="#26272B"/>
<circle cx="776" cy="98" r="16" transform="rotate(-180 776 98)" fill="#26272B"/>
<circle cx="730" cy="52" r="16" transform="rotate(-180 730 52)" fill="#26272B"/>
<circle cx="1280" cy="52" r="16" transform="rotate(-180 1280 52)" fill="#26272B"/>
<circle cx="1053" cy="145" r="13" transform="rotate(-180 1053 145)" fill="#26272B"/>
<circle cx="1007" cy="144" r="12" transform="rotate(-180 1007 144)" fill="#26272B"/>
<circle cx="1192" cy="190" r="12" transform="rotate(-180 1192 190)" fill="#26272B"/>
<circle cx="914" cy="190" r="12" transform="rotate(-180 914 190)" fill="#26272B"/>
<circle cx="1144" cy="190" r="11" transform="rotate(-180 1144 190)" fill="#26272B"/>
<circle cx="1098" cy="190" r="11" transform="rotate(-180 1098 190)" fill="#26272B"/>
<circle cx="1237" cy="190" r="11" transform="rotate(-180 1237 190)" fill="#26272B"/>
<circle cx="1283" cy="190" r="10" transform="rotate(-180 1283 190)" fill="#26272B"/>
<circle cx="1328" cy="98" r="10" transform="rotate(-180 1328 98)" fill="#26272B"/>
<circle cx="1054" cy="190" r="10" transform="rotate(-180 1054 190)" fill="#26272B"/>
<circle cx="1238" cy="236" r="10" transform="rotate(-180 1238 236)" fill="#26272B"/>
<circle cx="1191" cy="236" r="10" transform="rotate(-180 1191 236)" fill="#26272B"/>
<circle cx="1146" cy="236" r="10" transform="rotate(-180 1146 236)" fill="#26272B"/>
<circle cx="869" cy="236" r="10" transform="rotate(-180 869 236)" fill="#26272B"/>
<circle cx="913.5" cy="237.5" r="8.5" transform="rotate(-180 913.5 237.5)" fill="#26272B"/>
<circle cx="868.5" cy="281.5" r="8.5" transform="rotate(-180 868.5 281.5)" fill="#26272B"/>
<circle cx="776.5" cy="328.5" r="8.5" transform="rotate(-180 776.5 328.5)" fill="#26272B"/>
<circle cx="823.5" cy="328.5" r="7.5" transform="rotate(-180 823.5 328.5)" fill="#26272B"/>
<circle cx="823" cy="281" r="10" transform="rotate(-180 823 281)" fill="#26272B"/>
<circle cx="776" cy="281" r="10" transform="rotate(-180 776 281)" fill="#26272B"/>
<circle cx="1005" cy="190" r="10" transform="rotate(-180 1005 190)" fill="#26272B"/>
<circle cx="962" cy="190" r="10" transform="rotate(-180 962 190)" fill="#26272B"/>
<circle cx="961" cy="144" r="12" transform="rotate(-180 961 144)" fill="#26272B"/>
<circle cx="868" cy="189" r="12" transform="rotate(-180 868 189)" fill="#26272B"/>
<circle cx="822" cy="236" r="12" transform="rotate(-180 822 236)" fill="#26272B"/>
<circle cx="775" cy="236" r="12" transform="rotate(-180 775 236)" fill="#26272B"/>
<circle cx="731" cy="236" r="10" transform="rotate(-180 731 236)" fill="#26272B"/>
<circle cx="731" cy="283" r="8" transform="rotate(-180 731 283)" fill="#26272B"/>
<circle cx="732" cy="190" r="12" transform="rotate(-180 732 190)" fill="#26272B"/>
<circle cx="822.5" cy="190.5" r="12.5" transform="rotate(-180 822.5 190.5)" fill="#26272B"/>
<circle cx="915" cy="144" r="13" transform="rotate(-180 915 144)" fill="#26272B"/>
<circle cx="868" cy="144" r="15" transform="rotate(-180 868 144)" fill="#26272B"/>
<circle cx="823" cy="143" r="15" transform="rotate(-180 823 143)" fill="#26272B"/>
<circle cx="776" cy="143" r="15" transform="rotate(-180 776 143)" fill="#26272B"/>
<circle cx="777" cy="190" r="13" transform="rotate(-180 777 190)" fill="#26272B"/>
<circle cx="731" cy="144" r="12" transform="rotate(-180 731 144)" fill="#26272B"/>
<circle cx="12" cy="12" r="12" transform="matrix(1 0 0 -1 1271 156)" fill="#26272B"/>
<circle cx="685" cy="144" r="8" transform="rotate(-180 685 144)" fill="#26272B"/>
<circle cx="684.5" cy="190.5" r="6.5" transform="rotate(-180 684.5 190.5)" fill="#26272B"/>
<circle cx="730.5" cy="327.5" r="6.5" transform="rotate(-180 730.5 327.5)" fill="#26272B"/>
<circle cx="868.5" cy="326.5" r="6.5" transform="rotate(-180 868.5 326.5)" fill="#26272B"/>
<circle cx="823.5" cy="373.5" r="5.5" transform="rotate(-180 823.5 373.5)" fill="#26272B"/>
<circle cx="776.5" cy="419.5" r="5.5" transform="rotate(-180 776.5 419.5)" fill="#26272B"/>
<circle cx="869.5" cy="374.5" r="4.5" transform="rotate(-180 869.5 374.5)" fill="#26272B"/>
<circle cx="732.5" cy="373.5" r="4.5" transform="rotate(-180 732.5 373.5)" fill="#26272B"/>
<circle cx="915.5" cy="327.5" r="4.5" transform="rotate(-180 915.5 327.5)" fill="#26272B"/>
<circle cx="960.5" cy="281.5" r="4.5" transform="rotate(-180 960.5 281.5)" fill="#26272B"/>
<circle cx="1052.5" cy="281.5" r="4.5" transform="rotate(-180 1052.5 281.5)" fill="#26272B"/>
<circle cx="1007.5" cy="282.5" r="3.5" transform="rotate(-180 1007.5 282.5)" fill="#26272B"/>
<circle cx="823.5" cy="419.5" r="3.5" transform="rotate(-180 823.5 419.5)" fill="#26272B"/>
<circle cx="1098.5" cy="326.5" r="3.5" transform="rotate(-180 1098.5 326.5)" fill="#26272B"/>
<circle cx="1327.5" cy="235.5" r="3.5" transform="rotate(-180 1327.5 235.5)" fill="#26272B"/>
<circle cx="1282.5" cy="327.5" r="3.5" transform="rotate(-180 1282.5 327.5)" fill="#26272B"/>
<circle cx="1236.5" cy="373.5" r="3.5" transform="rotate(-180 1236.5 373.5)" fill="#26272B"/>
<circle cx="1190.5" cy="373.5" r="3.5" transform="rotate(-180 1190.5 373.5)" fill="#26272B"/>
<circle cx="777.5" cy="466.5" r="3.5" transform="rotate(-180 777.5 466.5)" fill="#26272B"/>
<circle cx="732.5" cy="419.5" r="3.5" transform="rotate(-180 732.5 419.5)" fill="#26272B"/>
<circle cx="775.5" cy="374.5" r="6.5" transform="rotate(-180 775.5 374.5)" fill="#26272B"/>
<circle cx="914.5" cy="280.5" r="6.5" transform="rotate(-180 914.5 280.5)" fill="#26272B"/>
<circle cx="1097.5" cy="282.5" r="6.5" transform="rotate(-180 1097.5 282.5)" fill="#26272B"/>
<circle cx="1053.5" cy="235.5" r="6.5" transform="rotate(-180 1053.5 235.5)" fill="#26272B"/>
<circle cx="1007.5" cy="235.5" r="6.5" transform="rotate(-180 1007.5 235.5)" fill="#26272B"/>
<circle cx="1236.5" cy="282.5" r="7.5" transform="rotate(-180 1236.5 282.5)" fill="#26272B"/>
<circle cx="1189.5" cy="282.5" r="7.5" transform="rotate(-180 1189.5 282.5)" fill="#26272B"/>
<circle cx="960.5" cy="236.5" r="7.5" transform="rotate(-180 960.5 236.5)" fill="#26272B"/>
<circle cx="1098.5" cy="235.5" r="7.5" transform="rotate(-180 1098.5 235.5)" fill="#26272B"/>
<circle cx="1282.5" cy="235.5" r="7.5" transform="rotate(-180 1282.5 235.5)" fill="#26272B"/>
<circle cx="1282.5" cy="282.5" r="6.5" transform="rotate(-180 1282.5 282.5)" fill="#26272B"/>
<circle cx="1145.5" cy="282.5" r="6.5" transform="rotate(-180 1145.5 282.5)" fill="#26272B"/>
<circle cx="1189.5" cy="328.5" r="6.5" transform="rotate(-180 1189.5 328.5)" fill="#26272B"/>
<circle cx="1143.5" cy="327.5" r="5.5" transform="rotate(-180 1143.5 327.5)" fill="#26272B"/>
<circle cx="1235.5" cy="328.5" r="6.5" transform="rotate(-180 1235.5 328.5)" fill="#26272B"/>
<circle cx="1327.5" cy="189.5" r="6.5" transform="rotate(-180 1327.5 189.5)" fill="#26272B"/>
<circle cx="685" cy="235" r="5" transform="rotate(-180 685 235)" fill="#26272B"/>
<circle cx="685.5" cy="281.5" r="3.5" transform="rotate(-180 685.5 281.5)" fill="#26272B"/>
<circle cx="8" cy="8" r="8" transform="matrix(1 0 0 -1 1321 152)" fill="#26272B"/>
<circle cx="8" cy="8" r="8" transform="matrix(1 0 0 -1 1366 60)" fill="#26272B"/>
<circle cx="6" cy="6" r="6" transform="matrix(1 0 0 -1 1367 104)" fill="#26272B"/>
<circle cx="639.5" cy="144.5" r="2.5" transform="rotate(-180 639.5 144.5)" fill="#26272B"/>
<circle cx="640.5" cy="189.5" r="1.5" transform="rotate(-180 640.5 189.5)" fill="#26272B"/>
<circle cx="685.5" cy="327.5" r="1.5" transform="rotate(-180 685.5 327.5)" fill="#26272B"/>
<circle cx="824" cy="465" r="2" transform="rotate(-180 824 465)" fill="#26272B"/>
<circle cx="780" cy="510" r="2" transform="rotate(-180 780 510)" fill="#26272B"/>
<circle cx="1009" cy="326" r="2" transform="rotate(-180 1009 326)" fill="#26272B"/>
<circle cx="869" cy="420" r="3" transform="rotate(-180 869 420)" fill="#26272B"/>
<circle cx="916" cy="375" r="2" transform="rotate(-180 916 375)" fill="#26272B"/>
<circle cx="961" cy="327" r="2" transform="rotate(-180 961 327)" fill="#26272B"/>
<circle cx="1053" cy="327" r="2" transform="rotate(-180 1053 327)" fill="#26272B"/>
<circle cx="1191" cy="419" r="2" transform="rotate(-180 1191 419)" fill="#26272B"/>
<circle cx="1282" cy="372" r="2" transform="rotate(-180 1282 372)" fill="#26272B"/>
<circle cx="1327" cy="281" r="2" transform="rotate(-180 1327 281)" fill="#26272B"/>
<circle cx="1237" cy="419" r="2" transform="rotate(-180 1237 419)" fill="#26272B"/>
<circle cx="1143.5" cy="372.5" r="2.5" transform="rotate(-180 1143.5 372.5)" fill="#26272B"/>
<circle cx="2.5" cy="2.5" r="2.5" transform="matrix(1 0 0 -1 1372 147)" fill="#26272B"/>
<circle cx="1099" cy="145" r="13" transform="rotate(-180 1099 145)" fill="#26272B"/>
<circle cx="1144.5" cy="144.5" r="13.5" transform="rotate(-180 1144.5 144.5)" fill="#26272B"/>
<circle cx="1190.5" cy="144.5" r="13.5" transform="rotate(-180 1190.5 144.5)" fill="#26272B"/>
<circle cx="1236.5" cy="144.5" r="13.5" transform="rotate(-180 1236.5 144.5)" fill="#26272B"/>
<circle cx="1282.5" cy="100.5" r="13.5" transform="rotate(-180 1282.5 100.5)" fill="#26272B"/>
<circle cx="1328.5" cy="51.5" r="13.5" transform="rotate(-180 1328.5 51.5)" fill="#26272B"/>
<circle cx="1282" cy="7" r="18" transform="rotate(-180 1282 7)" fill="#26272B"/>
<circle cx="1237" cy="6" r="20" transform="rotate(-180 1237 6)" fill="#26272B"/>
<circle cx="1190" cy="6" r="20" transform="rotate(-180 1190 6)" fill="#26272B"/>
<circle cx="1144" cy="6" r="20" transform="rotate(-180 1144 6)" fill="#26272B"/>
<circle cx="1098" cy="6" r="20" transform="rotate(-180 1098 6)" fill="#26272B"/>
<circle cx="1054" cy="6" r="20" transform="rotate(-180 1054 6)" fill="#26272B"/>
<circle cx="1007" cy="6" r="20" transform="rotate(-180 1007 6)" fill="#26272B"/>
<circle cx="961" cy="6" r="20" transform="rotate(-180 961 6)" fill="#26272B"/>
<circle cx="915" cy="6" r="20" transform="rotate(-180 915 6)" fill="#26272B"/>
<circle cx="869" cy="6" r="20" transform="rotate(-180 869 6)" fill="#26272B"/>
<circle cx="823" cy="6" r="20" transform="rotate(-180 823 6)" fill="#26272B"/>
<circle cx="777" cy="6" r="20" transform="rotate(-180 777 6)" fill="#26272B"/>
<circle cx="731" cy="6" r="18" transform="rotate(-180 731 6)" fill="#26272B"/>
<circle cx="685" cy="6" r="12" transform="rotate(-180 685 6)" fill="#26272B"/>
<circle cx="686" cy="52" r="11" transform="rotate(-180 686 52)" fill="#26272B"/>
<circle cx="685" cy="98" r="10" transform="rotate(-180 685 98)" fill="#26272B"/>
<circle cx="640" cy="6" r="11" transform="rotate(-180 640 6)" fill="#26272B"/>
<circle cx="1328" cy="6" r="15" transform="rotate(-180 1328 6)" fill="#26272B"/>
<circle cx="1374" cy="6" r="9" transform="rotate(-180 1374 6)" fill="#26272B"/>
<circle cx="1420.5" cy="5.5" r="2.5" transform="rotate(-180 1420.5 5.5)" fill="#26272B"/>
<circle cx="1420.5" cy="50.5" r="2.5" transform="rotate(-180 1420.5 50.5)" fill="#26272B"/>
<circle cx="5" cy="5" r="5" transform="matrix(1 0 0 -1 635 57)" fill="#26272B"/>
<circle cx="3.5" cy="3.5" r="3.5" transform="matrix(1 0 0 -1 636 102)" fill="#26272B"/>
<circle cx="1.5" cy="1.5" r="1.5" transform="matrix(1 0 0 -1 591 8)" fill="#26272B"/>
<circle cx="23" cy="52" r="17" transform="rotate(-180 23 52)" fill="#26272B"/>
<circle cx="68.5" cy="51.5" r="17.5" transform="rotate(-180 68.5 51.5)" fill="#26272B"/>
<circle cx="114.5" cy="51.5" r="17.5" transform="rotate(-180 114.5 51.5)" fill="#26272B"/>
<circle cx="160.5" cy="51.5" r="17.5" transform="rotate(-180 160.5 51.5)" fill="#26272B"/>
<circle cx="206.5" cy="51.5" r="17.5" transform="rotate(-180 206.5 51.5)" fill="#26272B"/>
<circle cx="68" cy="98" r="16" transform="rotate(-180 68 98)" fill="#26272B"/>
<circle cx="114" cy="98" r="16" transform="rotate(-180 114 98)" fill="#26272B"/>
<circle cx="162" cy="98" r="16" transform="rotate(-180 162 98)" fill="#26272B"/>
<circle cx="207" cy="98" r="16" transform="rotate(-180 207 98)" fill="#26272B"/>
<circle cx="23" cy="98" r="16" transform="rotate(-180 23 98)" fill="#26272B"/>
<circle cx="250" cy="52" r="16" transform="rotate(-180 250 52)" fill="#26272B"/>
<circle cx="23" cy="145" r="13" transform="rotate(-180 23 145)" fill="#26272B"/>
<circle cx="162" cy="190" r="12" transform="rotate(-180 162 190)" fill="#26272B"/>
<circle cx="114" cy="190" r="11" transform="rotate(-180 114 190)" fill="#26272B"/>
<circle cx="68" cy="190" r="11" transform="rotate(-180 68 190)" fill="#26272B"/>
<circle cx="207" cy="190" r="11" transform="rotate(-180 207 190)" fill="#26272B"/>
<circle cx="253" cy="190" r="10" transform="rotate(-180 253 190)" fill="#26272B"/>
<circle cx="298" cy="98" r="10" transform="rotate(-180 298 98)" fill="#26272B"/>
<circle cx="24" cy="190" r="10" transform="rotate(-180 24 190)" fill="#26272B"/>
<circle cx="208" cy="236" r="10" transform="rotate(-180 208 236)" fill="#26272B"/>
<circle cx="161" cy="236" r="10" transform="rotate(-180 161 236)" fill="#26272B"/>
<circle cx="116" cy="236" r="10" transform="rotate(-180 116 236)" fill="#26272B"/>
<circle cx="12" cy="12" r="12" transform="matrix(1 0 0 -1 241 156)" fill="#26272B"/>
<circle cx="22.5" cy="281.5" r="4.5" transform="rotate(-180 22.5 281.5)" fill="#26272B"/>
<circle cx="68.5" cy="326.5" r="3.5" transform="rotate(-180 68.5 326.5)" fill="#26272B"/>
<circle cx="297.5" cy="235.5" r="3.5" transform="rotate(-180 297.5 235.5)" fill="#26272B"/>
<circle cx="252.5" cy="327.5" r="3.5" transform="rotate(-180 252.5 327.5)" fill="#26272B"/>
<circle cx="206.5" cy="373.5" r="3.5" transform="rotate(-180 206.5 373.5)" fill="#26272B"/>
<circle cx="160.5" cy="373.5" r="3.5" transform="rotate(-180 160.5 373.5)" fill="#26272B"/>
<circle cx="67.5" cy="282.5" r="6.5" transform="rotate(-180 67.5 282.5)" fill="#26272B"/>
<circle cx="23.5" cy="235.5" r="6.5" transform="rotate(-180 23.5 235.5)" fill="#26272B"/>
<circle cx="206.5" cy="282.5" r="7.5" transform="rotate(-180 206.5 282.5)" fill="#26272B"/>
<circle cx="159.5" cy="282.5" r="7.5" transform="rotate(-180 159.5 282.5)" fill="#26272B"/>
<circle cx="68.5" cy="235.5" r="7.5" transform="rotate(-180 68.5 235.5)" fill="#26272B"/>
<circle cx="252.5" cy="235.5" r="7.5" transform="rotate(-180 252.5 235.5)" fill="#26272B"/>
<circle cx="252.5" cy="282.5" r="6.5" transform="rotate(-180 252.5 282.5)" fill="#26272B"/>
<circle cx="115.5" cy="282.5" r="6.5" transform="rotate(-180 115.5 282.5)" fill="#26272B"/>
<circle cx="159.5" cy="328.5" r="6.5" transform="rotate(-180 159.5 328.5)" fill="#26272B"/>
<circle cx="113.5" cy="327.5" r="5.5" transform="rotate(-180 113.5 327.5)" fill="#26272B"/>
<circle cx="205.5" cy="328.5" r="6.5" transform="rotate(-180 205.5 328.5)" fill="#26272B"/>
<circle cx="297.5" cy="189.5" r="6.5" transform="rotate(-180 297.5 189.5)" fill="#26272B"/>
<circle cx="8" cy="8" r="8" transform="matrix(1 0 0 -1 291 152)" fill="#26272B"/>
<circle cx="8" cy="8" r="8" transform="matrix(1 0 0 -1 336 60)" fill="#26272B"/>
<circle cx="6" cy="6" r="6" transform="matrix(1 0 0 -1 337 104)" fill="#26272B"/>
<circle cx="23" cy="327" r="2" transform="rotate(-180 23 327)" fill="#26272B"/>
<circle cx="161" cy="419" r="2" transform="rotate(-180 161 419)" fill="#26272B"/>
<circle cx="252" cy="372" r="2" transform="rotate(-180 252 372)" fill="#26272B"/>
<circle cx="297" cy="281" r="2" transform="rotate(-180 297 281)" fill="#26272B"/>
<circle cx="207" cy="419" r="2" transform="rotate(-180 207 419)" fill="#26272B"/>
<circle cx="113.5" cy="372.5" r="2.5" transform="rotate(-180 113.5 372.5)" fill="#26272B"/>
<circle cx="2.5" cy="2.5" r="2.5" transform="matrix(1 0 0 -1 342 147)" fill="#26272B"/>
<circle cx="69" cy="145" r="13" transform="rotate(-180 69 145)" fill="#26272B"/>
<circle cx="114.5" cy="144.5" r="13.5" transform="rotate(-180 114.5 144.5)" fill="#26272B"/>
<circle cx="160.5" cy="144.5" r="13.5" transform="rotate(-180 160.5 144.5)" fill="#26272B"/>
<circle cx="206.5" cy="144.5" r="13.5" transform="rotate(-180 206.5 144.5)" fill="#26272B"/>
<circle cx="252.5" cy="100.5" r="13.5" transform="rotate(-180 252.5 100.5)" fill="#26272B"/>
<circle cx="298.5" cy="51.5" r="13.5" transform="rotate(-180 298.5 51.5)" fill="#26272B"/>
<circle cx="252" cy="7" r="18" transform="rotate(-180 252 7)" fill="#26272B"/>
<circle cx="207" cy="6" r="20" transform="rotate(-180 207 6)" fill="#26272B"/>
<circle cx="160" cy="6" r="20" transform="rotate(-180 160 6)" fill="#26272B"/>
<circle cx="114" cy="6" r="20" transform="rotate(-180 114 6)" fill="#26272B"/>
<circle cx="68" cy="6" r="20" transform="rotate(-180 68 6)" fill="#26272B"/>
<circle cx="24" cy="6" r="20" transform="rotate(-180 24 6)" fill="#26272B"/>
<circle cx="298" cy="6" r="15" transform="rotate(-180 298 6)" fill="#26272B"/>
<circle cx="344" cy="6" r="9" transform="rotate(-180 344 6)" fill="#26272B"/>
<circle cx="390.5" cy="5.5" r="2.5" transform="rotate(-180 390.5 5.5)" fill="#26272B"/>
<circle cx="436.5" cy="5.5" r="2.5" transform="rotate(-180 436.5 5.5)" fill="#26272B"/>
<circle cx="390.5" cy="50.5" r="2.5" transform="rotate(-180 390.5 50.5)" fill="#26272B"/>
<circle cx="436.5" cy="50.5" r="2.5" transform="rotate(-180 436.5 50.5)" fill="#26272B"/>
</g>
<defs>
<clipPath id="clip0_16007_7710">
<rect width="1440" height="600" fill="white"/>
</clipPath>
</defs>
</svg>
