<svg width="879" height="572" viewBox="0 0 879 572" fill="none" xmlns="http://www.w3.org/2000/svg">
<circle cx="417" cy="460" r="17" fill="#26272B"/>
<circle cx="510" cy="460" r="17" fill="#26272B"/>
<circle cx="600" cy="460" r="17" fill="#26272B"/>
<circle cx="692" cy="460" r="17" fill="#26272B"/>
<circle cx="371.5" cy="460.5" r="17.5" fill="#26272B"/>
<circle cx="464.5" cy="460.5" r="17.5" fill="#26272B"/>
<circle cx="554.5" cy="460.5" r="17.5" fill="#26272B"/>
<circle cx="646.5" cy="460.5" r="17.5" fill="#26272B"/>
<circle cx="325.5" cy="460.5" r="17.5" fill="#26272B"/>
<circle cx="279.5" cy="460.5" r="17.5" fill="#26272B"/>
<circle cx="233.5" cy="460.5" r="17.5" fill="#26272B"/>
<circle cx="740" cy="414" r="14" fill="#26272B"/>
<circle cx="372" cy="414" r="16" fill="#26272B"/>
<circle cx="509" cy="414" r="16" fill="#26272B"/>
<circle cx="649" cy="414" r="16" fill="#26272B"/>
<circle cx="326" cy="414" r="16" fill="#26272B"/>
<circle cx="463" cy="414" r="16" fill="#26272B"/>
<circle cx="603" cy="414" r="16" fill="#26272B"/>
<circle cx="278" cy="414" r="16" fill="#26272B"/>
<circle cx="233" cy="414" r="16" fill="#26272B"/>
<circle cx="417" cy="414" r="16" fill="#26272B"/>
<circle cx="554" cy="414" r="16" fill="#26272B"/>
<circle cx="694" cy="414" r="16" fill="#26272B"/>
<circle cx="740" cy="460" r="16" fill="#26272B"/>
<circle cx="190" cy="460" r="16" fill="#26272B"/>
<circle cx="417" cy="367" r="13" fill="#26272B"/>
<circle cx="463" cy="368" r="12" fill="#26272B"/>
<circle cx="278" cy="322" r="12" fill="#26272B"/>
<circle cx="556" cy="322" r="12" fill="#26272B"/>
<circle cx="326" cy="322" r="11" fill="#26272B"/>
<circle cx="372" cy="322" r="11" fill="#26272B"/>
<circle cx="233" cy="322" r="11" fill="#26272B"/>
<circle cx="187" cy="322" r="10" fill="#26272B"/>
<circle cx="142" cy="414" r="10" fill="#26272B"/>
<circle cx="416" cy="322" r="10" fill="#26272B"/>
<circle cx="232" cy="276" r="10" fill="#26272B"/>
<circle cx="279" cy="276" r="10" fill="#26272B"/>
<circle cx="324" cy="276" r="10" fill="#26272B"/>
<circle cx="601" cy="276" r="10" fill="#26272B"/>
<circle cx="556.5" cy="274.5" r="8.5" fill="#26272B"/>
<circle cx="601.5" cy="230.5" r="8.5" fill="#26272B"/>
<circle cx="693.5" cy="183.5" r="8.5" fill="#26272B"/>
<circle cx="646.5" cy="183.5" r="7.5" fill="#26272B"/>
<circle cx="647" cy="231" r="10" fill="#26272B"/>
<circle cx="694" cy="231" r="10" fill="#26272B"/>
<circle cx="465" cy="322" r="10" fill="#26272B"/>
<circle cx="508" cy="322" r="10" fill="#26272B"/>
<circle cx="509" cy="368" r="12" fill="#26272B"/>
<circle cx="602" cy="323" r="12" fill="#26272B"/>
<circle cx="648" cy="276" r="12" fill="#26272B"/>
<circle cx="695" cy="276" r="12" fill="#26272B"/>
<circle cx="739" cy="276" r="10" fill="#26272B"/>
<circle cx="739" cy="229" r="8" fill="#26272B"/>
<circle cx="738" cy="322" r="12" fill="#26272B"/>
<circle cx="647.5" cy="321.5" r="12.5" fill="#26272B"/>
<circle cx="555" cy="368" r="13" fill="#26272B"/>
<circle cx="602" cy="368" r="15" fill="#26272B"/>
<circle cx="647" cy="369" r="15" fill="#26272B"/>
<circle cx="694" cy="369" r="15" fill="#26272B"/>
<circle cx="693" cy="322" r="13" fill="#26272B"/>
<circle cx="739" cy="368" r="12" fill="#26272B"/>
<circle cx="12" cy="12" r="12" transform="matrix(-1 0 0 1 199 356)" fill="#26272B"/>
<circle cx="785" cy="368" r="8" fill="#26272B"/>
<circle cx="785.5" cy="321.5" r="6.5" fill="#26272B"/>
<circle cx="739.5" cy="184.5" r="6.5" fill="#26272B"/>
<circle cx="601.5" cy="185.5" r="6.5" fill="#26272B"/>
<circle cx="646.5" cy="138.5" r="5.5" fill="#26272B"/>
<circle cx="693.5" cy="92.5" r="5.5" fill="#26272B"/>
<circle cx="600.5" cy="137.5" r="4.5" fill="#26272B"/>
<circle cx="737.5" cy="138.5" r="4.5" fill="#26272B"/>
<circle cx="554.5" cy="184.5" r="4.5" fill="#26272B"/>
<circle cx="509.5" cy="230.5" r="4.5" fill="#26272B"/>
<circle cx="417.5" cy="230.5" r="4.5" fill="#26272B"/>
<circle cx="462.5" cy="229.5" r="3.5" fill="#26272B"/>
<circle cx="646.5" cy="92.5" r="3.5" fill="#26272B"/>
<circle cx="371.5" cy="185.5" r="3.5" fill="#26272B"/>
<circle cx="142.5" cy="276.5" r="3.5" fill="#26272B"/>
<circle cx="187.5" cy="184.5" r="3.5" fill="#26272B"/>
<circle cx="233.5" cy="138.5" r="3.5" fill="#26272B"/>
<circle cx="279.5" cy="138.5" r="3.5" fill="#26272B"/>
<circle cx="692.5" cy="45.5" r="3.5" fill="#26272B"/>
<circle cx="737.5" cy="92.5" r="3.5" fill="#26272B"/>
<circle cx="694.5" cy="137.5" r="6.5" fill="#26272B"/>
<circle cx="555.5" cy="231.5" r="6.5" fill="#26272B"/>
<circle cx="372.5" cy="229.5" r="6.5" fill="#26272B"/>
<circle cx="416.5" cy="276.5" r="6.5" fill="#26272B"/>
<circle cx="462.5" cy="276.5" r="6.5" fill="#26272B"/>
<circle cx="233.5" cy="229.5" r="7.5" fill="#26272B"/>
<circle cx="280.5" cy="229.5" r="7.5" fill="#26272B"/>
<circle cx="509.5" cy="275.5" r="7.5" fill="#26272B"/>
<circle cx="371.5" cy="276.5" r="7.5" fill="#26272B"/>
<circle cx="187.5" cy="276.5" r="7.5" fill="#26272B"/>
<circle cx="187.5" cy="229.5" r="6.5" fill="#26272B"/>
<circle cx="324.5" cy="229.5" r="6.5" fill="#26272B"/>
<circle cx="280.5" cy="183.5" r="6.5" fill="#26272B"/>
<circle cx="326.5" cy="184.5" r="5.5" fill="#26272B"/>
<circle cx="234.5" cy="183.5" r="6.5" fill="#26272B"/>
<circle cx="142.5" cy="322.5" r="6.5" fill="#26272B"/>
<circle cx="785" cy="277" r="5" fill="#26272B"/>
<circle cx="784.5" cy="230.5" r="3.5" fill="#26272B"/>
<circle cx="8" cy="8" r="8" transform="matrix(-1 0 0 1 149 360)" fill="#26272B"/>
<circle cx="8" cy="8" r="8" transform="matrix(-1 0 0 1 104 452)" fill="#26272B"/>
<circle cx="6" cy="6" r="6" transform="matrix(-1 0 0 1 103 408)" fill="#26272B"/>
<circle cx="6" cy="6" r="6" transform="matrix(-1 0 0 1 12 538)" fill="#26272B"/>
<circle cx="830.5" cy="367.5" r="2.5" fill="#26272B"/>
<circle cx="829.5" cy="322.5" r="1.5" fill="#26272B"/>
<circle cx="784.5" cy="184.5" r="1.5" fill="#26272B"/>
<circle cx="646" cy="47" r="2" fill="#26272B"/>
<circle cx="690" cy="2" r="2" fill="#26272B"/>
<circle cx="461" cy="186" r="2" fill="#26272B"/>
<circle cx="601" cy="92" r="3" fill="#26272B"/>
<circle cx="554" cy="137" r="2" fill="#26272B"/>
<circle cx="509" cy="185" r="2" fill="#26272B"/>
<circle cx="417" cy="185" r="2" fill="#26272B"/>
<circle cx="279" cy="93" r="2" fill="#26272B"/>
<circle cx="188" cy="140" r="2" fill="#26272B"/>
<circle cx="143" cy="231" r="2" fill="#26272B"/>
<circle cx="233" cy="93" r="2" fill="#26272B"/>
<circle cx="326.5" cy="139.5" r="2.5" fill="#26272B"/>
<circle cx="2.5" cy="2.5" r="2.5" transform="matrix(-1 0 0 1 98 365)" fill="#26272B"/>
<circle cx="371" cy="367" r="13" fill="#26272B"/>
<circle cx="325.5" cy="367.5" r="13.5" fill="#26272B"/>
<circle cx="279.5" cy="367.5" r="13.5" fill="#26272B"/>
<circle cx="233.5" cy="367.5" r="13.5" fill="#26272B"/>
<circle cx="187.5" cy="411.5" r="13.5" fill="#26272B"/>
<circle cx="141.5" cy="460.5" r="13.5" fill="#26272B"/>
<circle cx="188" cy="505" r="18" fill="#26272B"/>
<circle cx="188" cy="547" r="25" fill="#26272B"/>
<circle cx="233" cy="506" r="20" fill="#26272B"/>
<circle cx="233" cy="547" r="25" fill="#26272B"/>
<circle cx="280" cy="506" r="20" fill="#26272B"/>
<circle cx="280" cy="547" r="25" fill="#26272B"/>
<circle cx="326" cy="506" r="20" fill="#26272B"/>
<circle cx="326" cy="547" r="25" fill="#26272B"/>
<circle cx="372" cy="506" r="20" fill="#26272B"/>
<circle cx="372" cy="547" r="25" fill="#26272B"/>
<circle cx="416" cy="506" r="20" fill="#26272B"/>
<circle cx="417" cy="547" r="25" fill="#26272B"/>
<circle cx="463" cy="506" r="20" fill="#26272B"/>
<circle cx="465" cy="547" r="25" fill="#26272B"/>
<circle cx="509" cy="506" r="20" fill="#26272B"/>
<circle cx="511" cy="547" r="25" fill="#26272B"/>
<circle cx="555" cy="506" r="20" fill="#26272B"/>
<circle cx="555" cy="547" r="25" fill="#26272B"/>
<circle cx="601" cy="506" r="20" fill="#26272B"/>
<circle cx="603" cy="547" r="25" fill="#26272B"/>
<circle cx="647" cy="506" r="20" fill="#26272B"/>
<circle cx="649" cy="547" r="25" fill="#26272B"/>
<circle cx="693" cy="506" r="20" fill="#26272B"/>
<circle cx="694" cy="547" r="25" fill="#26272B"/>
<circle cx="739" cy="506" r="18" fill="#26272B"/>
<circle cx="739" cy="550" r="18" fill="#26272B"/>
<circle cx="785" cy="506" r="12" fill="#26272B"/>
<circle cx="785" cy="551" r="12" fill="#26272B"/>
<circle cx="784" cy="460" r="11" fill="#26272B"/>
<circle cx="785" cy="414" r="10" fill="#26272B"/>
<circle cx="830" cy="506" r="11" fill="#26272B"/>
<circle cx="142" cy="506" r="15" fill="#26272B"/>
<circle cx="144.5" cy="546.5" r="22.5" fill="#26272B"/>
<circle cx="98.5" cy="546.5" r="17.5" fill="#26272B"/>
<circle cx="96" cy="506" r="9" fill="#26272B"/>
<circle cx="49" cy="544" r="9" fill="#26272B"/>
<circle cx="49.5" cy="506.5" r="2.5" fill="#26272B"/>
<circle cx="3.5" cy="506.5" r="2.5" fill="#26272B"/>
<circle cx="49.5" cy="461.5" r="2.5" fill="#26272B"/>
<circle cx="3.5" cy="461.5" r="2.5" fill="#26272B"/>
<circle cx="5" cy="5" r="5" transform="matrix(-1 0 0 1 835 546)" fill="#26272B"/>
<circle cx="5" cy="5" r="5" transform="matrix(-1 0 0 1 835 455)" fill="#26272B"/>
<circle cx="3.5" cy="3.5" r="3.5" transform="matrix(-1 0 0 1 834 410)" fill="#26272B"/>
<circle cx="2.5" cy="2.5" r="2.5" transform="matrix(-1 0 0 1 879 549)" fill="#26272B"/>
<circle cx="1.5" cy="1.5" r="1.5" transform="matrix(-1 0 0 1 879 504)" fill="#26272B"/>
</svg>
