<svg width="140" height="88" viewBox="0 0 140 88" fill="none" xmlns="http://www.w3.org/2000/svg">
<rect x="49.8335" y="12" width="40" height="40" rx="20" fill="#3F3F46"/>
<path fill-rule="evenodd" clip-rule="evenodd" d="M62.8335 29C62.8335 25.13 65.9635 22 69.8335 22C73.7035 22 76.8335 25.13 76.8335 29C76.8335 34.25 69.8335 42 69.8335 42C69.8335 42 62.8335 34.25 62.8335 29ZM72.8335 29C72.8335 30.6569 71.4904 32 69.8335 32C68.1766 32 66.8335 30.6569 66.8335 29C66.8335 27.3431 68.1766 26 69.8335 26C71.4904 26 72.8335 27.3431 72.8335 29Z" fill="white"/>
<path d="M59.1877 68.108C58.8677 68.108 58.6197 68.02 58.4437 67.844C58.2757 67.668 58.1917 67.42 58.1917 67.1V60.44C58.1917 60.112 58.2837 59.864 58.4677 59.696C58.6517 59.52 58.9117 59.432 59.2477 59.432C59.5277 59.432 59.7477 59.488 59.9077 59.6C60.0757 59.704 60.2277 59.88 60.3637 60.128L62.9437 64.76H62.5237L65.0917 60.128C65.2357 59.88 65.3877 59.704 65.5477 59.6C65.7157 59.488 65.9397 59.432 66.2197 59.432C66.5397 59.432 66.7837 59.52 66.9517 59.696C67.1277 59.864 67.2157 60.112 67.2157 60.44V67.1C67.2157 67.42 67.1317 67.668 66.9637 67.844C66.7957 68.02 66.5477 68.108 66.2197 68.108C65.8997 68.108 65.6517 68.02 65.4757 67.844C65.3077 67.668 65.2237 67.42 65.2237 67.1V62.972H65.4757L63.5437 66.332C63.4317 66.508 63.3117 66.64 63.1837 66.728C63.0637 66.816 62.8997 66.86 62.6917 66.86C62.4917 66.86 62.3277 66.816 62.1997 66.728C62.0717 66.64 61.9557 66.508 61.8517 66.332L59.9077 62.96H60.1837V67.1C60.1837 67.42 60.0997 67.668 59.9317 67.844C59.7637 68.02 59.5157 68.108 59.1877 68.108ZM70.6812 68.132C70.2252 68.132 69.8212 68.048 69.4692 67.88C69.1252 67.712 68.8532 67.484 68.6532 67.196C68.4612 66.9 68.3652 66.564 68.3652 66.188C68.3652 65.756 68.4772 65.416 68.7012 65.168C68.9252 64.92 69.2852 64.744 69.7812 64.64C70.2772 64.528 70.9372 64.472 71.7612 64.472H72.4212V65.48H71.7612C71.4492 65.48 71.1892 65.504 70.9812 65.552C70.7812 65.592 70.6332 65.66 70.5372 65.756C70.4412 65.844 70.3932 65.96 70.3932 66.104C70.3932 66.288 70.4572 66.44 70.5852 66.56C70.7212 66.68 70.9132 66.74 71.1612 66.74C71.3612 66.74 71.5372 66.696 71.6892 66.608C71.8492 66.52 71.9772 66.4 72.0732 66.248C72.1692 66.088 72.2172 65.904 72.2172 65.696V64.304C72.2172 64.016 72.1412 63.812 71.9892 63.692C71.8452 63.572 71.5932 63.512 71.2332 63.512C71.0412 63.512 70.8252 63.536 70.5852 63.584C70.3452 63.624 70.0772 63.7 69.7812 63.812C69.5652 63.892 69.3812 63.904 69.2292 63.848C69.0772 63.792 68.9572 63.696 68.8692 63.56C68.7892 63.424 68.7492 63.276 68.7492 63.116C68.7572 62.956 68.8092 62.804 68.9052 62.66C69.0092 62.516 69.1652 62.404 69.3732 62.324C69.7572 62.18 70.1092 62.084 70.4292 62.036C70.7572 61.988 71.0572 61.964 71.3292 61.964C71.9852 61.964 72.5252 62.06 72.9492 62.252C73.3812 62.436 73.7012 62.724 73.9092 63.116C74.1252 63.5 74.2332 63.996 74.2332 64.604V67.028C74.2332 67.38 74.1492 67.648 73.9812 67.832C73.8132 68.016 73.5692 68.108 73.2492 68.108C72.9212 68.108 72.6692 68.016 72.4932 67.832C72.3252 67.648 72.2412 67.38 72.2412 67.028V66.716L72.3132 66.884C72.2732 67.14 72.1812 67.36 72.0372 67.544C71.8932 67.728 71.7052 67.872 71.4732 67.976C71.2412 68.08 70.9772 68.132 70.6812 68.132ZM76.5055 70.268C76.1695 70.268 75.9095 70.176 75.7255 69.992C75.5415 69.808 75.4495 69.54 75.4495 69.188V63.056C75.4495 62.712 75.5375 62.448 75.7135 62.264C75.8975 62.08 76.1575 61.988 76.4935 61.988C76.8375 61.988 77.0975 62.08 77.2735 62.264C77.4575 62.448 77.5495 62.712 77.5495 63.056V63.752L77.4175 63.164C77.5295 62.804 77.7615 62.516 78.1135 62.3C78.4735 62.076 78.8815 61.964 79.3375 61.964C79.8495 61.964 80.2975 62.088 80.6815 62.336C81.0735 62.584 81.3775 62.936 81.5935 63.392C81.8095 63.848 81.9175 64.4 81.9175 65.048C81.9175 65.68 81.8095 66.228 81.5935 66.692C81.3775 67.156 81.0735 67.512 80.6815 67.76C80.2975 68.008 79.8495 68.132 79.3375 68.132C78.8975 68.132 78.5015 68.028 78.1495 67.82C77.7975 67.612 77.5615 67.34 77.4415 67.004H77.5855V69.188C77.5855 69.54 77.4895 69.808 77.2975 69.992C77.1135 70.176 76.8495 70.268 76.5055 70.268ZM78.6655 66.56C78.8815 66.56 79.0695 66.508 79.2295 66.404C79.3975 66.292 79.5295 66.128 79.6255 65.912C79.7215 65.688 79.7695 65.4 79.7695 65.048C79.7695 64.512 79.6655 64.128 79.4575 63.896C79.2495 63.656 78.9855 63.536 78.6655 63.536C78.4495 63.536 78.2575 63.588 78.0895 63.692C77.9215 63.796 77.7895 63.96 77.6935 64.184C77.5975 64.4 77.5495 64.688 77.5495 65.048C77.5495 65.576 77.6535 65.96 77.8615 66.2C78.0695 66.44 78.3375 66.56 78.6655 66.56Z" fill="white"/>
</svg>
