<svg width="140" height="88" viewBox="0 0 140 88" fill="none" xmlns="http://www.w3.org/2000/svg">
<path d="M77.8335 22H61.8335C60.7335 22 59.8335 22.9 59.8335 24V42L63.8335 38H77.8335C78.9335 38 79.8335 37.1 79.8335 36V24C79.8335 22.9 78.9335 22 77.8335 22Z" fill="white"/>
<path d="M73.8335 20C73.8335 14.4772 78.3106 10 83.8335 10C89.3563 10 93.8335 14.4772 93.8335 20C93.8335 25.5228 89.3563 30 83.8335 30C78.3106 30 73.8335 25.5228 73.8335 20Z" fill="#FE2C55"/>
<path d="M83.8307 21.228C83.6227 21.228 83.4547 21.16 83.3267 21.024C83.2067 20.888 83.1307 20.7 83.0987 20.46L82.6787 16.836C82.6227 16.42 82.6987 16.084 82.9067 15.828C83.1147 15.564 83.4227 15.432 83.8307 15.432C84.2467 15.432 84.5547 15.564 84.7547 15.828C84.9547 16.084 85.0267 16.42 84.9707 16.836L84.5627 20.46C84.5307 20.7 84.4547 20.888 84.3347 21.024C84.2147 21.16 84.0467 21.228 83.8307 21.228ZM83.8307 24.072C83.4707 24.072 83.1827 23.964 82.9667 23.748C82.7587 23.532 82.6547 23.248 82.6547 22.896C82.6547 22.552 82.7587 22.276 82.9667 22.068C83.1827 21.852 83.4707 21.744 83.8307 21.744C84.2067 21.744 84.4947 21.852 84.6947 22.068C84.9027 22.276 85.0067 22.552 85.0067 22.896C85.0067 23.248 84.9027 23.532 84.6947 23.748C84.4947 23.964 84.2067 24.072 83.8307 24.072Z" fill="white"/>
<path d="M43.5666 68.108C43.2466 68.108 42.9986 68.02 42.8226 67.844C42.6546 67.668 42.5706 67.42 42.5706 67.1V60.44C42.5706 60.112 42.6626 59.864 42.8466 59.696C43.0306 59.52 43.2906 59.432 43.6266 59.432C43.9066 59.432 44.1266 59.488 44.2866 59.6C44.4546 59.704 44.6066 59.88 44.7426 60.128L47.3226 64.76H46.9026L49.4706 60.128C49.6146 59.88 49.7666 59.704 49.9266 59.6C50.0946 59.488 50.3186 59.432 50.5986 59.432C50.9186 59.432 51.1626 59.52 51.3306 59.696C51.5066 59.864 51.5946 60.112 51.5946 60.44V67.1C51.5946 67.42 51.5106 67.668 51.3426 67.844C51.1746 68.02 50.9266 68.108 50.5986 68.108C50.2786 68.108 50.0306 68.02 49.8546 67.844C49.6866 67.668 49.6026 67.42 49.6026 67.1V62.972H49.8546L47.9226 66.332C47.8106 66.508 47.6906 66.64 47.5626 66.728C47.4426 66.816 47.2786 66.86 47.0706 66.86C46.8706 66.86 46.7066 66.816 46.5786 66.728C46.4506 66.64 46.3346 66.508 46.2306 66.332L44.2866 62.96H44.5626V67.1C44.5626 67.42 44.4786 67.668 44.3106 67.844C44.1426 68.02 43.8946 68.108 43.5666 68.108ZM56.2241 68.132C55.5041 68.132 54.8801 68.008 54.3521 67.76C53.8321 67.504 53.4321 67.144 53.1521 66.68C52.8721 66.216 52.7321 65.668 52.7321 65.036C52.7321 64.428 52.8641 63.896 53.1281 63.44C53.4001 62.976 53.7681 62.616 54.2321 62.36C54.7041 62.096 55.2401 61.964 55.8401 61.964C56.2801 61.964 56.6801 62.036 57.0401 62.18C57.4001 62.316 57.7081 62.52 57.9641 62.792C58.2201 63.056 58.4121 63.376 58.5401 63.752C58.6761 64.128 58.7441 64.548 58.7441 65.012C58.7441 65.172 58.7001 65.292 58.6121 65.372C58.5241 65.444 58.3841 65.48 58.1921 65.48H54.5201V64.472H57.1841L56.9921 64.628C56.9921 64.332 56.9521 64.092 56.8721 63.908C56.7921 63.724 56.6721 63.584 56.5121 63.488C56.3601 63.392 56.1681 63.344 55.9361 63.344C55.6881 63.344 55.4721 63.404 55.2881 63.524C55.1121 63.636 54.9761 63.804 54.8801 64.028C54.7841 64.252 54.7361 64.532 54.7361 64.868V64.976C54.7361 65.544 54.8601 65.952 55.1081 66.2C55.3641 66.44 55.7561 66.56 56.2841 66.56C56.4601 66.56 56.6601 66.54 56.8841 66.5C57.1161 66.452 57.3361 66.388 57.5441 66.308C57.7521 66.228 57.9321 66.216 58.0841 66.272C58.2361 66.32 58.3521 66.408 58.4321 66.536C58.5201 66.656 58.5681 66.796 58.5761 66.956C58.5841 67.108 58.5481 67.26 58.4681 67.412C58.3881 67.556 58.2561 67.668 58.0721 67.748C57.7921 67.876 57.4921 67.972 57.1721 68.036C56.8601 68.1 56.5441 68.132 56.2241 68.132ZM62.0164 68.132C61.6644 68.132 61.3044 68.104 60.9364 68.048C60.5764 68 60.2484 67.908 59.9524 67.772C59.7524 67.692 59.6084 67.584 59.5204 67.448C59.4404 67.312 59.4004 67.168 59.4004 67.016C59.4084 66.864 59.4524 66.728 59.5324 66.608C59.6204 66.48 59.7324 66.392 59.8684 66.344C60.0124 66.288 60.1724 66.292 60.3484 66.356C60.6844 66.476 60.9844 66.564 61.2484 66.62C61.5204 66.668 61.7804 66.692 62.0284 66.692C62.3244 66.692 62.5364 66.652 62.6644 66.572C62.7924 66.484 62.8564 66.372 62.8564 66.236C62.8564 66.116 62.8124 66.024 62.7244 65.96C62.6444 65.896 62.5284 65.852 62.3764 65.828L61.0444 65.612C60.5484 65.524 60.1644 65.344 59.8924 65.072C59.6204 64.792 59.4844 64.428 59.4844 63.98C59.4844 63.564 59.6004 63.208 59.8324 62.912C60.0724 62.608 60.3964 62.376 60.8044 62.216C61.2204 62.048 61.6964 61.964 62.2324 61.964C62.5924 61.964 62.9204 61.992 63.2164 62.048C63.5124 62.096 63.8004 62.188 64.0804 62.324C64.2564 62.396 64.3804 62.5 64.4524 62.636C64.5244 62.772 64.5524 62.916 64.5364 63.068C64.5204 63.212 64.4684 63.348 64.3804 63.476C64.3004 63.596 64.1884 63.68 64.0444 63.728C63.9004 63.768 63.7324 63.756 63.5404 63.692C63.2764 63.588 63.0404 63.512 62.8324 63.464C62.6324 63.416 62.4444 63.392 62.2684 63.392C61.9404 63.392 61.7084 63.436 61.5724 63.524C61.4364 63.612 61.3684 63.724 61.3684 63.86C61.3684 63.964 61.4044 64.052 61.4764 64.124C61.5484 64.188 61.6604 64.232 61.8124 64.256L63.1444 64.484C63.6564 64.564 64.0484 64.74 64.3204 65.012C64.6004 65.276 64.7404 65.636 64.7404 66.092C64.7404 66.74 64.4924 67.244 63.9964 67.604C63.5004 67.956 62.8404 68.132 62.0164 68.132ZM67.9695 68.132C67.6175 68.132 67.2575 68.104 66.8895 68.048C66.5295 68 66.2015 67.908 65.9055 67.772C65.7055 67.692 65.5615 67.584 65.4735 67.448C65.3935 67.312 65.3535 67.168 65.3535 67.016C65.3615 66.864 65.4055 66.728 65.4855 66.608C65.5735 66.48 65.6855 66.392 65.8215 66.344C65.9655 66.288 66.1255 66.292 66.3015 66.356C66.6375 66.476 66.9375 66.564 67.2015 66.62C67.4735 66.668 67.7335 66.692 67.9815 66.692C68.2775 66.692 68.4895 66.652 68.6175 66.572C68.7455 66.484 68.8095 66.372 68.8095 66.236C68.8095 66.116 68.7655 66.024 68.6775 65.96C68.5975 65.896 68.4815 65.852 68.3295 65.828L66.9975 65.612C66.5015 65.524 66.1175 65.344 65.8455 65.072C65.5735 64.792 65.4375 64.428 65.4375 63.98C65.4375 63.564 65.5535 63.208 65.7855 62.912C66.0255 62.608 66.3495 62.376 66.7575 62.216C67.1735 62.048 67.6495 61.964 68.1855 61.964C68.5455 61.964 68.8735 61.992 69.1695 62.048C69.4655 62.096 69.7535 62.188 70.0335 62.324C70.2095 62.396 70.3335 62.5 70.4055 62.636C70.4775 62.772 70.5055 62.916 70.4895 63.068C70.4735 63.212 70.4215 63.348 70.3335 63.476C70.2535 63.596 70.1415 63.68 69.9975 63.728C69.8535 63.768 69.6855 63.756 69.4935 63.692C69.2295 63.588 68.9935 63.512 68.7855 63.464C68.5855 63.416 68.3975 63.392 68.2215 63.392C67.8935 63.392 67.6615 63.436 67.5255 63.524C67.3895 63.612 67.3215 63.724 67.3215 63.86C67.3215 63.964 67.3575 64.052 67.4295 64.124C67.5015 64.188 67.6135 64.232 67.7655 64.256L69.0975 64.484C69.6095 64.564 70.0015 64.74 70.2735 65.012C70.5535 65.276 70.6935 65.636 70.6935 66.092C70.6935 66.74 70.4455 67.244 69.9495 67.604C69.4535 67.956 68.7935 68.132 67.9695 68.132ZM73.6226 68.132C73.1666 68.132 72.7626 68.048 72.4106 67.88C72.0666 67.712 71.7946 67.484 71.5946 67.196C71.4026 66.9 71.3066 66.564 71.3066 66.188C71.3066 65.756 71.4186 65.416 71.6426 65.168C71.8666 64.92 72.2266 64.744 72.7226 64.64C73.2186 64.528 73.8786 64.472 74.7026 64.472H75.3626V65.48H74.7026C74.3906 65.48 74.1306 65.504 73.9226 65.552C73.7226 65.592 73.5746 65.66 73.4786 65.756C73.3826 65.844 73.3346 65.96 73.3346 66.104C73.3346 66.288 73.3986 66.44 73.5266 66.56C73.6626 66.68 73.8546 66.74 74.1026 66.74C74.3026 66.74 74.4786 66.696 74.6306 66.608C74.7906 66.52 74.9186 66.4 75.0146 66.248C75.1106 66.088 75.1586 65.904 75.1586 65.696V64.304C75.1586 64.016 75.0826 63.812 74.9306 63.692C74.7866 63.572 74.5346 63.512 74.1746 63.512C73.9826 63.512 73.7666 63.536 73.5266 63.584C73.2866 63.624 73.0186 63.7 72.7226 63.812C72.5066 63.892 72.3226 63.904 72.1706 63.848C72.0186 63.792 71.8986 63.696 71.8106 63.56C71.7306 63.424 71.6906 63.276 71.6906 63.116C71.6986 62.956 71.7506 62.804 71.8466 62.66C71.9506 62.516 72.1066 62.404 72.3146 62.324C72.6986 62.18 73.0506 62.084 73.3706 62.036C73.6986 61.988 73.9986 61.964 74.2706 61.964C74.9266 61.964 75.4666 62.06 75.8906 62.252C76.3226 62.436 76.6426 62.724 76.8506 63.116C77.0666 63.5 77.1746 63.996 77.1746 64.604V67.028C77.1746 67.38 77.0906 67.648 76.9226 67.832C76.7546 68.016 76.5106 68.108 76.1906 68.108C75.8626 68.108 75.6106 68.016 75.4346 67.832C75.2666 67.648 75.1826 67.38 75.1826 67.028V66.716L75.2546 66.884C75.2146 67.14 75.1226 67.36 74.9786 67.544C74.8346 67.728 74.6466 67.872 74.4146 67.976C74.1826 68.08 73.9186 68.132 73.6226 68.132ZM81.3189 70.292C80.8789 70.292 80.4669 70.26 80.0829 70.196C79.6989 70.14 79.3669 70.056 79.0869 69.944C78.8549 69.864 78.6909 69.748 78.5949 69.596C78.4989 69.444 78.4549 69.284 78.4629 69.116C78.4709 68.948 78.5149 68.796 78.5949 68.66C78.6829 68.524 78.7989 68.424 78.9429 68.36C79.0869 68.304 79.2469 68.308 79.4229 68.372C79.7749 68.516 80.0949 68.608 80.3829 68.648C80.6709 68.696 80.9149 68.72 81.1149 68.72C81.6029 68.72 81.9669 68.616 82.2069 68.408C82.4549 68.208 82.5789 67.892 82.5789 67.46V66.704H82.6749C82.5549 67.04 82.3109 67.316 81.9429 67.532C81.5749 67.74 81.1749 67.844 80.7429 67.844C80.2149 67.844 79.7549 67.724 79.3629 67.484C78.9709 67.236 78.6629 66.892 78.4389 66.452C78.2229 66.012 78.1149 65.496 78.1149 64.904C78.1149 64.456 78.1789 64.052 78.3069 63.692C78.4349 63.332 78.6109 63.024 78.8349 62.768C79.0669 62.512 79.3429 62.316 79.6629 62.18C79.9909 62.036 80.3509 61.964 80.7429 61.964C81.1909 61.964 81.5909 62.068 81.9429 62.276C82.3029 62.484 82.5429 62.756 82.6629 63.092L82.5429 63.584V63.056C82.5429 62.712 82.6349 62.448 82.8189 62.264C83.0109 62.08 83.2749 61.988 83.6109 61.988C83.9469 61.988 84.2029 62.08 84.3789 62.264C84.5629 62.448 84.6549 62.712 84.6549 63.056V67.208C84.6549 68.232 84.3669 69 83.7909 69.512C83.2149 70.032 82.3909 70.292 81.3189 70.292ZM81.4029 66.272C81.6429 66.272 81.8469 66.22 82.0149 66.116C82.1829 66.004 82.3149 65.848 82.4109 65.648C82.5069 65.44 82.5549 65.192 82.5549 64.904C82.5549 64.472 82.4509 64.136 82.2429 63.896C82.0349 63.656 81.7549 63.536 81.4029 63.536C81.1789 63.536 80.9789 63.592 80.8029 63.704C80.6269 63.808 80.4909 63.964 80.3949 64.172C80.3069 64.372 80.2629 64.616 80.2629 64.904C80.2629 65.336 80.3669 65.672 80.5749 65.912C80.7829 66.152 81.0589 66.272 81.4029 66.272ZM89.1186 68.132C88.3986 68.132 87.7746 68.008 87.2466 67.76C86.7266 67.504 86.3266 67.144 86.0466 66.68C85.7666 66.216 85.6266 65.668 85.6266 65.036C85.6266 64.428 85.7586 63.896 86.0226 63.44C86.2946 62.976 86.6626 62.616 87.1266 62.36C87.5986 62.096 88.1346 61.964 88.7346 61.964C89.1746 61.964 89.5746 62.036 89.9346 62.18C90.2946 62.316 90.6026 62.52 90.8586 62.792C91.1146 63.056 91.3066 63.376 91.4346 63.752C91.5706 64.128 91.6386 64.548 91.6386 65.012C91.6386 65.172 91.5946 65.292 91.5066 65.372C91.4186 65.444 91.2786 65.48 91.0866 65.48H87.4146V64.472H90.0786L89.8866 64.628C89.8866 64.332 89.8466 64.092 89.7666 63.908C89.6866 63.724 89.5666 63.584 89.4066 63.488C89.2546 63.392 89.0626 63.344 88.8306 63.344C88.5826 63.344 88.3666 63.404 88.1826 63.524C88.0066 63.636 87.8706 63.804 87.7746 64.028C87.6786 64.252 87.6306 64.532 87.6306 64.868V64.976C87.6306 65.544 87.7546 65.952 88.0026 66.2C88.2586 66.44 88.6506 66.56 89.1786 66.56C89.3546 66.56 89.5546 66.54 89.7786 66.5C90.0106 66.452 90.2306 66.388 90.4386 66.308C90.6466 66.228 90.8266 66.216 90.9786 66.272C91.1306 66.32 91.2466 66.408 91.3266 66.536C91.4146 66.656 91.4626 66.796 91.4706 66.956C91.4786 67.108 91.4426 67.26 91.3626 67.412C91.2826 67.556 91.1506 67.668 90.9666 67.748C90.6866 67.876 90.3866 67.972 90.0666 68.036C89.7546 68.1 89.4386 68.132 89.1186 68.132ZM94.9109 68.132C94.5589 68.132 94.1989 68.104 93.8309 68.048C93.4709 68 93.1429 67.908 92.8469 67.772C92.6469 67.692 92.5029 67.584 92.4149 67.448C92.3349 67.312 92.2949 67.168 92.2949 67.016C92.3029 66.864 92.3469 66.728 92.4269 66.608C92.5149 66.48 92.6269 66.392 92.7629 66.344C92.9069 66.288 93.0669 66.292 93.2429 66.356C93.5789 66.476 93.8789 66.564 94.1429 66.62C94.4149 66.668 94.6749 66.692 94.9229 66.692C95.2189 66.692 95.4309 66.652 95.5589 66.572C95.6869 66.484 95.7509 66.372 95.7509 66.236C95.7509 66.116 95.7069 66.024 95.6189 65.96C95.5389 65.896 95.4229 65.852 95.2709 65.828L93.9389 65.612C93.4429 65.524 93.0589 65.344 92.7869 65.072C92.5149 64.792 92.3789 64.428 92.3789 63.98C92.3789 63.564 92.4949 63.208 92.7269 62.912C92.9669 62.608 93.2909 62.376 93.6989 62.216C94.1149 62.048 94.5909 61.964 95.1269 61.964C95.4869 61.964 95.8149 61.992 96.1109 62.048C96.4069 62.096 96.6949 62.188 96.9749 62.324C97.1509 62.396 97.2749 62.5 97.3469 62.636C97.4189 62.772 97.4469 62.916 97.4309 63.068C97.4149 63.212 97.3629 63.348 97.2749 63.476C97.1949 63.596 97.0829 63.68 96.9389 63.728C96.7949 63.768 96.6269 63.756 96.4349 63.692C96.1709 63.588 95.9349 63.512 95.7269 63.464C95.5269 63.416 95.3389 63.392 95.1629 63.392C94.8349 63.392 94.6029 63.436 94.4669 63.524C94.3309 63.612 94.2629 63.724 94.2629 63.86C94.2629 63.964 94.2989 64.052 94.3709 64.124C94.4429 64.188 94.5549 64.232 94.7069 64.256L96.0389 64.484C96.5509 64.564 96.9429 64.74 97.2149 65.012C97.4949 65.276 97.6349 65.636 97.6349 66.092C97.6349 66.74 97.3869 67.244 96.8909 67.604C96.3949 67.956 95.7349 68.132 94.9109 68.132Z" fill="white"/>
</svg>
