<svg width="240" height="129" viewBox="0 0 240 129" fill="none" xmlns="http://www.w3.org/2000/svg">
<path d="M120 129C186.274 129 240 103.588 240 72.24C240 55.5929 224.848 40.6199 200.713 30.2374L216.188 -7.56979e-06L181.111 23.3823C163.212 18.3626 142.318 15.48 120 15.48C53.7258 15.48 0 40.8923 0 72.24C0 103.588 53.7258 129 120 129Z" fill="black"/>
<path d="M112.48 126.936C171.141 126.936 234.674 103.251 234.674 74.0352C234.673 58.9192 218.42 44.6691 194.609 34.4342L205.387 12.2598L181.081 29.3206C161.316 22.7785 138.153 18.8338 115.3 18.8338C56.64 18.8338 6.26661 44.8193 6.26632 74.0352C6.26632 103.251 53.82 126.936 112.48 126.936Z" fill="white"/>
<path d="M43.9936 70.024L47.1376 52.96L54.7216 52.312C54.6096 52.664 54.5136 53.024 54.4336 53.392C54.3536 53.696 54.2736 54.016 54.1936 54.352C54.1296 54.672 54.0736 54.96 54.0256 55.216C53.8176 55.232 53.5216 55.248 53.1376 55.264C52.7536 55.264 52.3616 55.272 51.9616 55.288C51.5616 55.288 51.2176 55.288 50.9296 55.288C50.6416 55.288 50.4896 55.288 50.4736 55.288L49.6336 59.584L51.0256 59.512C51.2016 59.496 51.3776 59.488 51.5536 59.488C51.7456 59.488 51.9296 59.488 52.1056 59.488C52.2816 59.488 52.4416 59.488 52.5856 59.488C52.7296 59.488 52.8416 59.48 52.9216 59.464C52.8896 59.688 52.8576 59.912 52.8256 60.136C52.8096 60.344 52.7856 60.56 52.7536 60.784L52.5376 62.104C52.4576 62.12 52.3536 62.128 52.2256 62.128C52.0976 62.128 51.9456 62.128 51.7696 62.128C51.5936 62.144 51.4096 62.152 51.2176 62.152C51.0256 62.152 50.8416 62.16 50.6656 62.176C50.4576 62.192 50.2416 62.2 50.0176 62.2C49.7936 62.2 49.5536 62.208 49.2976 62.224L48.4816 66.64L51.9856 66.088L51.7456 68.824L43.9936 70.024ZM57.5973 70.24C57.5813 69.92 57.5573 69.608 57.5253 69.304C57.5093 68.984 57.4933 68.672 57.4773 68.368C57.4613 68.096 57.4453 67.832 57.4293 67.576C57.4133 67.304 57.3973 67.04 57.3813 66.784C57.3653 66.512 57.3493 66.272 57.3333 66.064C57.3173 65.84 57.3013 65.64 57.2853 65.464L56.7333 66.784C56.6213 67.04 56.5013 67.304 56.3733 67.576C56.2613 67.832 56.1493 68.088 56.0373 68.344C55.9093 68.648 55.7733 68.952 55.6293 69.256C55.4853 69.544 55.3413 69.84 55.1973 70.144L51.1173 69.784C51.5173 69.08 51.9173 68.376 52.3173 67.672C52.7173 66.952 53.1173 66.248 53.5173 65.56C53.9173 64.856 54.3013 64.144 54.6693 63.424C55.0373 62.688 55.3893 61.944 55.7253 61.192C55.6293 60.472 55.5333 59.832 55.4373 59.272C55.3573 58.712 55.2613 58.16 55.1493 57.616C55.0373 57.104 54.9173 56.552 54.7893 55.96C54.6613 55.352 54.5333 54.728 54.4053 54.088L58.2453 52.504C58.3253 53.272 58.4213 54.104 58.5333 55C58.5813 55.448 58.6293 55.888 58.6773 56.32C58.7253 56.736 58.7653 57.136 58.7973 57.52L59.9013 55.12C60.0773 54.72 60.2533 54.328 60.4293 53.944C60.6213 53.544 60.8133 53.144 61.0053 52.744L64.4853 53.68C63.9253 54.624 63.4293 55.48 62.9973 56.248C62.5813 57.016 62.1813 57.792 61.7973 58.576C61.4133 59.36 60.9813 60.256 60.5013 61.264C60.6773 62.48 60.9333 63.768 61.2693 65.128C61.6053 66.488 61.9173 67.744 62.2053 68.896C62.1733 68.912 61.9813 68.968 61.6293 69.064C61.2773 69.144 60.8053 69.272 60.2133 69.448C59.6373 69.608 59.1093 69.76 58.6293 69.904C58.1653 70.032 57.8213 70.144 57.5973 70.24ZM61.7765 70.024C62.2565 67.864 62.7125 65.752 63.1445 63.688C63.3205 62.856 63.4965 61.968 63.6725 61.024C63.8645 60.064 64.0565 59.096 64.2485 58.12C64.4405 57.144 64.6165 56.224 64.7765 55.36C64.9365 54.48 65.0645 53.712 65.1605 53.056C65.8005 52.864 66.4885 52.688 67.2245 52.528C67.9765 52.368 68.6485 52.288 69.2405 52.288C70.2005 52.288 70.9605 52.496 71.5205 52.912C72.0805 53.312 72.4805 53.856 72.7205 54.544C72.9605 55.232 73.0805 55.984 73.0805 56.8C73.0805 57.696 72.9125 58.56 72.5765 59.392C72.2565 60.208 71.8165 60.944 71.2565 61.6C70.7125 62.256 70.0805 62.776 69.3605 63.16C68.6565 63.544 67.9205 63.736 67.1525 63.736H66.8885C66.7605 64.28 66.6405 64.872 66.5285 65.512C66.4165 66.152 66.3205 66.744 66.2405 67.288C66.1765 67.608 66.1205 67.928 66.0725 68.248C66.0245 68.568 65.9765 68.888 65.9285 69.208L61.7765 70.024ZM67.3685 61.216C67.7365 61.12 68.1045 60.88 68.4725 60.496C68.8405 60.096 69.1445 59.592 69.3845 58.984C69.6245 58.376 69.7445 57.712 69.7445 56.992C69.7445 56.4 69.6085 55.952 69.3365 55.648C69.0805 55.344 68.7925 55.192 68.4725 55.192C68.2965 56.248 68.1205 57.248 67.9445 58.192C67.7685 59.136 67.5765 60.144 67.3685 61.216ZM71.2303 70.048C71.4063 68.784 71.5903 67.512 71.7823 66.232C71.9903 64.952 72.1983 63.72 72.4063 62.536C72.6303 61.336 72.8383 60.256 73.0303 59.296C73.2383 58.256 73.4463 57.2 73.6543 56.128C73.8623 55.056 74.0783 53.976 74.3023 52.888L78.5023 52.336L77.2543 57.76C77.0303 58.704 76.7983 59.72 76.5583 60.808C76.3343 61.88 76.1263 62.92 75.9343 63.928C75.7423 64.936 75.5903 65.832 75.4783 66.616C75.8783 66.584 76.3023 66.568 76.7503 66.568C77.2143 66.552 77.6223 66.544 77.9743 66.544C77.9903 66.912 78.0223 67.304 78.0703 67.72C78.1183 68.12 78.1663 68.472 78.2143 68.776C78.2783 69.064 78.3103 69.224 78.3103 69.256C78.2463 69.256 78.1823 69.256 78.1183 69.256C78.0703 69.256 78.0143 69.248 77.9503 69.232H77.5663C76.9423 69.232 76.2463 69.264 75.4783 69.328C74.7263 69.376 73.9743 69.464 73.2223 69.592C72.4863 69.704 71.8223 69.856 71.2303 70.048ZM82.5284 70.096C81.4724 70.096 80.6084 69.688 79.9364 68.872C79.2644 68.056 78.9284 66.824 78.9284 65.176C78.9284 64.264 79.0404 63.304 79.2644 62.296C79.4884 61.288 79.8004 60.296 80.2004 59.32C80.6004 58.344 81.0644 57.44 81.5924 56.608C82.4404 55.264 83.4164 54.168 84.5204 53.32C85.6244 52.472 86.7844 52.048 88.0004 52.048C88.9604 52.048 89.6964 52.296 90.2084 52.792C90.7364 53.272 91.1044 53.896 91.3124 54.664C91.5204 55.416 91.6244 56.2 91.6244 57.016C91.6244 58.92 91.3284 60.696 90.7364 62.344C90.1604 63.976 89.4084 65.36 88.4804 66.496C87.5524 67.664 86.5604 68.56 85.5044 69.184C84.4644 69.792 83.4724 70.096 82.5284 70.096ZM83.8244 66.136C84.5444 66.136 85.1764 65.896 85.7204 65.416C86.2804 64.936 86.7524 64.328 87.1364 63.592C87.5204 62.84 87.8084 62.056 88.0004 61.24C88.1924 60.424 88.2884 59.688 88.2884 59.032C88.2884 58.776 88.2644 58.504 88.2164 58.216C88.1684 57.912 88.0644 57.648 87.9044 57.424C87.7444 57.2 87.4964 57.088 87.1604 57.088C86.4244 57.088 85.7604 57.36 85.1684 57.904C84.5764 58.432 84.0804 59.104 83.6804 59.92C83.2804 60.752 82.9844 61.568 82.7924 62.368C82.6004 63.168 82.5044 63.896 82.5044 64.552C82.5044 64.888 82.6244 65.24 82.8644 65.608C83.1044 65.96 83.4244 66.136 83.8244 66.136ZM90.1164 70.024L91.3644 63.784C91.5564 62.632 91.7644 61.448 91.9884 60.232C92.2124 59.016 92.4204 57.816 92.6124 56.632C92.8204 55.448 92.9804 54.336 93.0924 53.296C94.0044 53.008 94.9884 52.8 96.0444 52.672C97.1004 52.528 98.1484 52.456 99.1884 52.456C100.404 52.456 101.228 52.72 101.66 53.248C102.108 53.776 102.332 54.488 102.332 55.384C102.332 56.2 102.14 57.024 101.756 57.856C101.372 58.672 100.868 59.416 100.244 60.088C99.6364 60.744 98.9644 61.264 98.2284 61.648C98.5164 62.288 98.8204 62.992 99.1404 63.76C99.4764 64.512 99.7884 65.232 100.076 65.92C100.236 66.32 100.396 66.72 100.556 67.12C100.732 67.52 100.9 67.92 101.06 68.32L97.3404 69.616L96.4764 66.736C96.2364 65.936 96.0124 65.168 95.8044 64.432C95.6124 63.68 95.5004 63.152 95.4684 62.848L95.1564 62.944C95.1084 63.2 95.0524 63.48 94.9884 63.784C94.9404 64.072 94.8844 64.392 94.8204 64.744C94.7564 65.096 94.6924 65.44 94.6284 65.776C94.5644 66.096 94.5004 66.416 94.4364 66.736L94.0044 69.016L90.1164 70.024ZM95.7564 59.608C96.0444 59.576 96.3964 59.456 96.8124 59.248C97.2444 59.024 97.6684 58.752 98.0844 58.432C98.5164 58.112 98.8764 57.784 99.1644 57.448C99.4524 57.112 99.5964 56.816 99.5964 56.56C99.5964 56.24 99.4044 56.032 99.0204 55.936C98.6524 55.824 98.1644 55.768 97.5564 55.768H97.0284C96.9324 55.784 96.8444 55.792 96.7644 55.792C96.6844 55.792 96.6044 55.792 96.5244 55.792L95.7564 59.608ZM100.876 70.024L104.02 52.96L111.604 52.312C111.492 52.664 111.396 53.024 111.316 53.392C111.236 53.696 111.156 54.016 111.076 54.352C111.012 54.672 110.956 54.96 110.908 55.216C110.7 55.232 110.404 55.248 110.02 55.264C109.636 55.264 109.244 55.272 108.844 55.288C108.444 55.288 108.1 55.288 107.812 55.288C107.524 55.288 107.372 55.288 107.356 55.288L106.516 59.584L107.908 59.512C108.084 59.496 108.26 59.488 108.436 59.488C108.628 59.488 108.812 59.488 108.988 59.488C109.164 59.488 109.324 59.488 109.468 59.488C109.612 59.488 109.724 59.48 109.804 59.464C109.772 59.688 109.74 59.912 109.708 60.136C109.692 60.344 109.668 60.56 109.636 60.784L109.42 62.104C109.34 62.12 109.236 62.128 109.108 62.128C108.98 62.128 108.828 62.128 108.652 62.128C108.476 62.144 108.292 62.152 108.1 62.152C107.908 62.152 107.724 62.16 107.548 62.176C107.34 62.192 107.124 62.2 106.9 62.2C106.676 62.2 106.436 62.208 106.18 62.224L105.364 66.64L108.868 66.088L108.628 68.824L100.876 70.024ZM113.648 70.024C113.872 69.256 114.088 68.384 114.296 67.408C114.504 66.416 114.696 65.408 114.872 64.384C115.064 63.36 115.24 62.408 115.4 61.528C115.56 60.648 115.688 59.92 115.784 59.344C115.96 58.272 116.128 57.192 116.288 56.104C116.464 55 116.632 53.88 116.792 52.744L124.832 52.336L124.136 55.288H120.368L119.624 59.56C119.88 59.544 120.12 59.536 120.344 59.536C120.584 59.536 120.816 59.536 121.04 59.536H122.168C122.36 59.536 122.528 59.536 122.672 59.536C122.816 59.536 122.944 59.528 123.056 59.512C123.04 59.736 123.016 59.96 122.984 60.184C122.952 60.392 122.92 60.608 122.888 60.832L122.672 62.128C122.336 62.128 121.848 62.12 121.208 62.104C120.584 62.072 119.92 62.048 119.216 62.032L118.112 69.112C117.84 69.16 117.568 69.208 117.296 69.256C117.04 69.304 116.776 69.36 116.504 69.424C116.056 69.504 115.568 69.6 115.04 69.712C114.512 69.824 114.048 69.928 113.648 70.024ZM126.075 70.096C125.019 70.096 124.155 69.688 123.483 68.872C122.811 68.056 122.475 66.824 122.475 65.176C122.475 64.264 122.587 63.304 122.811 62.296C123.035 61.288 123.347 60.296 123.747 59.32C124.147 58.344 124.611 57.44 125.139 56.608C125.987 55.264 126.963 54.168 128.067 53.32C129.171 52.472 130.331 52.048 131.547 52.048C132.507 52.048 133.243 52.296 133.755 52.792C134.283 53.272 134.651 53.896 134.859 54.664C135.067 55.416 135.171 56.2 135.171 57.016C135.171 58.92 134.875 60.696 134.283 62.344C133.707 63.976 132.955 65.36 132.027 66.496C131.099 67.664 130.107 68.56 129.051 69.184C128.011 69.792 127.019 70.096 126.075 70.096ZM127.371 66.136C128.091 66.136 128.723 65.896 129.267 65.416C129.827 64.936 130.299 64.328 130.683 63.592C131.067 62.84 131.355 62.056 131.547 61.24C131.739 60.424 131.835 59.688 131.835 59.032C131.835 58.776 131.811 58.504 131.763 58.216C131.715 57.912 131.611 57.648 131.451 57.424C131.291 57.2 131.043 57.088 130.707 57.088C129.971 57.088 129.307 57.36 128.715 57.904C128.123 58.432 127.627 59.104 127.227 59.92C126.827 60.752 126.531 61.568 126.339 62.368C126.147 63.168 126.051 63.896 126.051 64.552C126.051 64.888 126.171 65.24 126.411 65.608C126.651 65.96 126.971 66.136 127.371 66.136ZM133.663 70.024L134.911 63.784C135.103 62.632 135.311 61.448 135.535 60.232C135.759 59.016 135.967 57.816 136.159 56.632C136.367 55.448 136.527 54.336 136.639 53.296C137.551 53.008 138.535 52.8 139.591 52.672C140.647 52.528 141.695 52.456 142.735 52.456C143.951 52.456 144.775 52.72 145.207 53.248C145.655 53.776 145.879 54.488 145.879 55.384C145.879 56.2 145.687 57.024 145.303 57.856C144.919 58.672 144.415 59.416 143.791 60.088C143.183 60.744 142.511 61.264 141.775 61.648C142.063 62.288 142.367 62.992 142.687 63.76C143.023 64.512 143.335 65.232 143.623 65.92C143.783 66.32 143.943 66.72 144.103 67.12C144.279 67.52 144.447 67.92 144.607 68.32L140.887 69.616L140.023 66.736C139.783 65.936 139.559 65.168 139.351 64.432C139.159 63.68 139.047 63.152 139.015 62.848L138.703 62.944C138.655 63.2 138.599 63.48 138.535 63.784C138.487 64.072 138.431 64.392 138.367 64.744C138.303 65.096 138.239 65.44 138.175 65.776C138.111 66.096 138.047 66.416 137.983 66.736L137.551 69.016L133.663 70.024ZM139.303 59.608C139.591 59.576 139.943 59.456 140.359 59.248C140.791 59.024 141.215 58.752 141.631 58.432C142.063 58.112 142.423 57.784 142.711 57.448C142.999 57.112 143.143 56.816 143.143 56.56C143.143 56.24 142.951 56.032 142.567 55.936C142.199 55.824 141.711 55.768 141.103 55.768H140.575C140.479 55.784 140.391 55.792 140.311 55.792C140.231 55.792 140.151 55.792 140.071 55.792L139.303 59.608ZM149.015 70.024C149.239 69.256 149.455 68.384 149.663 67.408C149.871 66.416 150.063 65.408 150.239 64.384C150.431 63.36 150.607 62.408 150.767 61.528C150.927 60.648 151.055 59.92 151.151 59.344C151.327 58.272 151.495 57.192 151.655 56.104C151.831 55 151.999 53.88 152.159 52.744L160.199 52.336L159.503 55.288H155.735L154.991 59.56C155.247 59.544 155.487 59.536 155.711 59.536C155.951 59.536 156.183 59.536 156.407 59.536H157.535C157.727 59.536 157.895 59.536 158.039 59.536C158.183 59.536 158.311 59.528 158.423 59.512C158.407 59.736 158.383 59.96 158.351 60.184C158.319 60.392 158.287 60.608 158.255 60.832L158.039 62.128C157.703 62.128 157.215 62.12 156.575 62.104C155.951 62.072 155.287 62.048 154.583 62.032L153.479 69.112C153.207 69.16 152.935 69.208 152.663 69.256C152.407 69.304 152.143 69.36 151.871 69.424C151.423 69.504 150.935 69.6 150.407 69.712C149.879 69.824 149.415 69.928 149.015 70.024ZM157.195 70.024L158.443 63.784C158.635 62.632 158.843 61.448 159.067 60.232C159.291 59.016 159.499 57.816 159.691 56.632C159.899 55.448 160.059 54.336 160.171 53.296C161.083 53.008 162.067 52.8 163.123 52.672C164.179 52.528 165.227 52.456 166.267 52.456C167.483 52.456 168.307 52.72 168.739 53.248C169.187 53.776 169.411 54.488 169.411 55.384C169.411 56.2 169.219 57.024 168.835 57.856C168.451 58.672 167.947 59.416 167.323 60.088C166.715 60.744 166.043 61.264 165.307 61.648C165.595 62.288 165.899 62.992 166.219 63.76C166.555 64.512 166.867 65.232 167.155 65.92C167.315 66.32 167.475 66.72 167.635 67.12C167.811 67.52 167.979 67.92 168.139 68.32L164.419 69.616L163.555 66.736C163.315 65.936 163.091 65.168 162.883 64.432C162.691 63.68 162.579 63.152 162.547 62.848L162.235 62.944C162.187 63.2 162.131 63.48 162.067 63.784C162.019 64.072 161.963 64.392 161.899 64.744C161.835 65.096 161.771 65.44 161.707 65.776C161.643 66.096 161.579 66.416 161.515 66.736L161.083 69.016L157.195 70.024ZM162.835 59.608C163.123 59.576 163.475 59.456 163.891 59.248C164.323 59.024 164.747 58.752 165.163 58.432C165.595 58.112 165.955 57.784 166.243 57.448C166.531 57.112 166.675 56.816 166.675 56.56C166.675 56.24 166.483 56.032 166.099 55.936C165.731 55.824 165.243 55.768 164.635 55.768H164.107C164.011 55.784 163.923 55.792 163.843 55.792C163.763 55.792 163.683 55.792 163.603 55.792L162.835 59.608ZM167.955 70.024L171.099 52.96L178.683 52.312C178.571 52.664 178.475 53.024 178.395 53.392C178.315 53.696 178.235 54.016 178.155 54.352C178.091 54.672 178.035 54.96 177.987 55.216C177.779 55.232 177.483 55.248 177.099 55.264C176.715 55.264 176.323 55.272 175.923 55.288C175.523 55.288 175.179 55.288 174.891 55.288C174.603 55.288 174.451 55.288 174.435 55.288L173.595 59.584L174.987 59.512C175.163 59.496 175.339 59.488 175.515 59.488C175.707 59.488 175.891 59.488 176.067 59.488C176.243 59.488 176.403 59.488 176.547 59.488C176.691 59.488 176.803 59.48 176.883 59.464C176.851 59.688 176.819 59.912 176.787 60.136C176.771 60.344 176.747 60.56 176.715 60.784L176.499 62.104C176.419 62.12 176.315 62.128 176.187 62.128C176.059 62.128 175.907 62.128 175.731 62.128C175.555 62.144 175.371 62.152 175.179 62.152C174.987 62.152 174.803 62.16 174.627 62.176C174.419 62.192 174.203 62.2 173.979 62.2C173.755 62.2 173.515 62.208 173.259 62.224L172.443 66.64L175.947 66.088L175.707 68.824L167.955 70.024ZM176.134 70.024L179.278 52.96L186.862 52.312C186.75 52.664 186.654 53.024 186.574 53.392C186.494 53.696 186.414 54.016 186.334 54.352C186.27 54.672 186.214 54.96 186.166 55.216C185.958 55.232 185.662 55.248 185.278 55.264C184.894 55.264 184.502 55.272 184.102 55.288C183.702 55.288 183.358 55.288 183.07 55.288C182.782 55.288 182.63 55.288 182.614 55.288L181.774 59.584L183.166 59.512C183.342 59.496 183.518 59.488 183.694 59.488C183.886 59.488 184.07 59.488 184.246 59.488C184.422 59.488 184.582 59.488 184.726 59.488C184.87 59.488 184.982 59.48 185.062 59.464C185.03 59.688 184.998 59.912 184.966 60.136C184.95 60.344 184.926 60.56 184.894 60.784L184.678 62.104C184.598 62.12 184.494 62.128 184.366 62.128C184.238 62.128 184.086 62.128 183.91 62.128C183.734 62.144 183.55 62.152 183.358 62.152C183.166 62.152 182.982 62.16 182.806 62.176C182.598 62.192 182.382 62.2 182.158 62.2C181.934 62.2 181.694 62.208 181.438 62.224L180.622 66.64L184.126 66.088L183.886 68.824L176.134 70.024ZM183.306 72.664C183.466 71.848 183.642 71 183.834 70.12C184.026 69.24 184.202 68.408 184.362 67.624C184.522 66.84 184.634 66.192 184.698 65.68H185.322C185.45 65.696 185.57 65.704 185.682 65.704C185.794 65.704 185.882 65.704 185.946 65.704C186.426 65.704 186.802 65.704 187.074 65.704C187.362 65.688 187.642 65.68 187.914 65.68C188.202 65.664 188.578 65.648 189.042 65.632C188.818 66.704 188.522 67.848 188.154 69.064C187.802 70.28 187.442 71.48 187.074 72.664H183.306ZM40.406 94.12C40.886 91.816 41.342 89.584 41.774 87.424C42.126 85.392 42.47 83.44 42.806 81.568C43.142 79.696 43.382 77.976 43.526 76.408C43.638 76.424 43.734 76.432 43.814 76.432C43.91 76.432 43.99 76.432 44.054 76.432H44.558C44.974 76.432 45.438 76.424 45.95 76.408C46.462 76.376 46.934 76.352 47.366 76.336C47.478 76.896 47.582 77.448 47.678 77.992C47.79 78.536 47.886 79.064 47.966 79.576C48.046 80.024 48.134 80.488 48.23 80.968C48.326 81.432 48.422 81.904 48.518 82.384C48.598 82.864 48.678 83.312 48.758 83.728C48.854 84.128 48.934 84.496 48.998 84.832C49.19 83.888 49.366 82.96 49.526 82.048C49.702 81.136 49.87 80.312 50.03 79.576L50.726 76.36L53.654 76C53.382 77.216 53.126 78.408 52.886 79.576C52.646 80.744 52.422 81.872 52.214 82.96C51.814 84.912 51.462 86.752 51.158 88.48C50.854 90.208 50.622 91.712 50.462 92.992C50.638 92.992 50.606 93.016 50.366 93.064C50.142 93.096 49.806 93.152 49.358 93.232C48.91 93.296 48.43 93.384 47.918 93.496C47.406 93.608 46.95 93.744 46.55 93.904C46.502 93.264 46.454 92.64 46.406 92.032C46.358 91.424 46.302 90.832 46.238 90.256C46.142 89.232 46.03 88.216 45.902 87.208C45.774 86.2 45.646 85.4 45.518 84.808C45.406 85.512 45.27 86.32 45.11 87.232C44.95 88.128 44.774 89.032 44.582 89.944L43.91 93.304L40.406 94.12ZM55.4816 94.096C54.4256 94.096 53.5616 93.688 52.8896 92.872C52.2176 92.056 51.8816 90.824 51.8816 89.176C51.8816 88.264 51.9936 87.304 52.2176 86.296C52.4416 85.288 52.7536 84.296 53.1536 83.32C53.5536 82.344 54.0176 81.44 54.5456 80.608C55.3936 79.264 56.3696 78.168 57.4736 77.32C58.5776 76.472 59.7376 76.048 60.9536 76.048C61.9136 76.048 62.6496 76.296 63.1616 76.792C63.6896 77.272 64.0576 77.896 64.2656 78.664C64.4736 79.416 64.5776 80.2 64.5776 81.016C64.5776 82.92 64.2816 84.696 63.6896 86.344C63.1136 87.976 62.3616 89.36 61.4336 90.496C60.5056 91.664 59.5136 92.56 58.4576 93.184C57.4176 93.792 56.4256 94.096 55.4816 94.096ZM56.7776 90.136C57.4976 90.136 58.1296 89.896 58.6736 89.416C59.2336 88.936 59.7056 88.328 60.0896 87.592C60.4736 86.84 60.7616 86.056 60.9536 85.24C61.1456 84.424 61.2416 83.688 61.2416 83.032C61.2416 82.776 61.2176 82.504 61.1696 82.216C61.1216 81.912 61.0176 81.648 60.8576 81.424C60.6976 81.2 60.4496 81.088 60.1136 81.088C59.3776 81.088 58.7136 81.36 58.1216 81.904C57.5296 82.432 57.0336 83.104 56.6336 83.92C56.2336 84.752 55.9376 85.568 55.7456 86.368C55.5536 87.168 55.4576 87.896 55.4576 88.552C55.4576 88.888 55.5776 89.24 55.8176 89.608C56.0576 89.96 56.3776 90.136 56.7776 90.136ZM71.765 94.048C71.125 94.048 70.485 93.88 69.845 93.544C69.205 93.192 68.589 92.64 67.997 91.888L69.773 88.408C69.949 88.712 70.205 89 70.541 89.272C70.893 89.544 71.261 89.76 71.645 89.92C72.029 90.08 72.357 90.16 72.629 90.16C73.045 90.16 73.437 90.032 73.805 89.776C74.189 89.52 74.381 89.176 74.381 88.744C74.381 88.184 74.125 87.672 73.613 87.208C73.101 86.744 72.525 86.288 71.885 85.84C71.261 85.392 70.685 84.888 70.157 84.328C69.645 83.752 69.389 83.096 69.389 82.36C69.389 81.528 69.629 80.76 70.109 80.056C70.589 79.336 71.213 78.712 71.981 78.184C72.749 77.64 73.565 77.224 74.429 76.936C75.309 76.632 76.141 76.48 76.925 76.48C77.485 76.48 78.005 76.576 78.485 76.768C78.965 76.944 79.349 77.24 79.637 77.656C79.925 78.072 80.069 78.632 80.069 79.336C80.069 79.448 80.061 79.56 80.045 79.672C80.045 79.784 80.037 79.896 80.021 80.008C80.005 80.12 79.981 80.24 79.949 80.368C79.933 80.48 79.917 80.6 79.901 80.728L76.421 81.736C76.453 81.608 76.477 81.48 76.493 81.352C76.525 81.224 76.541 81.096 76.541 80.968C76.541 80.488 76.453 80.144 76.277 79.936C76.117 79.712 75.901 79.6 75.629 79.6C75.485 79.6 75.277 79.68 75.005 79.84C74.733 79.984 74.485 80.192 74.261 80.464C74.053 80.72 73.949 81.008 73.949 81.328C73.949 81.856 74.165 82.296 74.597 82.648C75.045 82.984 75.557 83.328 76.133 83.68C76.405 83.84 76.709 84.096 77.045 84.448C77.381 84.784 77.669 85.248 77.909 85.84C78.165 86.416 78.293 87.16 78.293 88.072C78.293 89.256 77.997 90.296 77.405 91.192C76.829 92.088 76.045 92.792 75.053 93.304C74.061 93.8 72.965 94.048 71.765 94.048ZM78.0935 93.976C78.3175 93.048 78.5415 92 78.7655 90.832C78.9895 89.648 79.2135 88.424 79.4375 87.16C79.6615 85.896 79.8695 84.68 80.0615 83.512C80.2375 82.488 80.4055 81.448 80.5655 80.392C80.7415 79.336 80.9095 78.272 81.0695 77.2L84.8135 76.6L83.7335 82.912C83.4935 84.4 83.2775 85.736 83.0855 86.92C82.9095 88.104 82.7335 89.224 82.5575 90.28C82.3975 91.336 82.2295 92.416 82.0535 93.52C81.7495 93.52 81.3815 93.544 80.9495 93.592C80.5175 93.624 80.0855 93.672 79.6535 93.736C79.2215 93.784 78.8535 93.832 78.5495 93.88C78.2615 93.928 78.1095 93.96 78.0935 93.976ZM88.1771 94.576C87.5851 94.576 87.0171 94.448 86.4731 94.192C85.9451 93.936 85.4891 93.544 85.1051 93.016C84.7051 92.504 84.3931 91.856 84.1691 91.072C83.9451 90.288 83.8331 89.368 83.8331 88.312C83.8331 86.248 84.1291 84.448 84.7211 82.912C85.3131 81.376 86.0651 80.096 86.9771 79.072C87.8731 78.048 88.8331 77.288 89.8571 76.792C90.8971 76.296 91.8651 76.048 92.7611 76.048C93.6251 76.048 94.3291 76.24 94.8731 76.624C95.4171 76.992 95.8171 77.488 96.0731 78.112C96.3291 78.736 96.4571 79.432 96.4571 80.2L93.1691 80.824C93.0251 80.184 92.8331 79.728 92.5931 79.456C92.3531 79.184 92.0811 79.048 91.7771 79.048C91.4251 79.048 91.0571 79.24 90.6731 79.624C90.3051 80.008 89.9371 80.528 89.5691 81.184C89.2171 81.824 88.8971 82.544 88.6091 83.344C88.3211 84.144 88.0811 84.968 87.8891 85.816C87.7131 86.664 87.6091 87.464 87.5771 88.216C87.5771 89.208 87.7211 89.92 88.0091 90.352C88.3131 90.768 88.6971 90.976 89.1611 90.976C89.6091 90.976 90.0491 90.832 90.4811 90.544C90.9291 90.256 91.2971 89.872 91.5851 89.392C91.8891 88.896 92.0491 88.344 92.0651 87.736L89.4971 88.12L89.9531 85.744L92.1611 85.456C92.7691 85.376 93.4091 85.28 94.0811 85.168C94.7691 85.056 95.3691 84.952 95.8811 84.856C95.7691 86.488 95.4491 87.92 94.9211 89.152C94.4091 90.368 93.7691 91.376 93.0011 92.176C92.2331 92.976 91.4251 93.576 90.5771 93.976C89.7451 94.376 88.9451 94.576 88.1771 94.576ZM94.9216 94.12C95.4016 91.816 95.8576 89.584 96.2896 87.424C96.6416 85.392 96.9856 83.44 97.3216 81.568C97.6576 79.696 97.8976 77.976 98.0416 76.408C98.1536 76.424 98.2496 76.432 98.3296 76.432C98.4256 76.432 98.5056 76.432 98.5696 76.432H99.0736C99.4896 76.432 99.9536 76.424 100.466 76.408C100.978 76.376 101.45 76.352 101.882 76.336C101.994 76.896 102.098 77.448 102.194 77.992C102.306 78.536 102.402 79.064 102.482 79.576C102.562 80.024 102.65 80.488 102.746 80.968C102.842 81.432 102.938 81.904 103.034 82.384C103.114 82.864 103.194 83.312 103.274 83.728C103.37 84.128 103.45 84.496 103.514 84.832C103.706 83.888 103.882 82.96 104.042 82.048C104.218 81.136 104.386 80.312 104.546 79.576L105.242 76.36L108.17 76C107.898 77.216 107.642 78.408 107.402 79.576C107.162 80.744 106.938 81.872 106.73 82.96C106.33 84.912 105.978 86.752 105.674 88.48C105.37 90.208 105.138 91.712 104.978 92.992C105.154 92.992 105.122 93.016 104.882 93.064C104.658 93.096 104.322 93.152 103.874 93.232C103.426 93.296 102.946 93.384 102.434 93.496C101.922 93.608 101.466 93.744 101.066 93.904C101.018 93.264 100.97 92.64 100.922 92.032C100.874 91.424 100.818 90.832 100.754 90.256C100.658 89.232 100.546 88.216 100.418 87.208C100.29 86.2 100.162 85.4 100.034 84.808C99.9216 85.512 99.7856 86.32 99.6256 87.232C99.4656 88.128 99.2896 89.032 99.0976 89.944L98.4256 93.304L94.9216 94.12ZM109.613 94.432C109.133 94.432 108.645 94.328 108.149 94.12C107.653 93.912 107.237 93.592 106.901 93.16C106.565 92.728 106.397 92.176 106.397 91.504V91.312C106.397 91.232 106.405 91.168 106.421 91.12C106.469 90.704 106.533 90.16 106.613 89.488C106.709 88.816 106.821 88.088 106.949 87.304C107.077 86.504 107.205 85.712 107.333 84.928C107.477 84.144 107.605 83.432 107.717 82.792C107.957 81.512 108.149 80.48 108.293 79.696C108.437 78.912 108.549 78.312 108.629 77.896C108.725 77.464 108.797 77.144 108.845 76.936C109.021 76.92 109.205 76.904 109.397 76.888C109.605 76.856 109.821 76.832 110.045 76.816C110.269 76.784 110.485 76.76 110.693 76.744C110.917 76.728 111.133 76.712 111.341 76.696L112.805 76.552C112.597 77.528 112.397 78.456 112.205 79.336C112.029 80.2 111.861 81.024 111.701 81.808L110.597 87.112C110.501 87.512 110.429 87.848 110.381 88.12C110.317 88.376 110.245 88.704 110.165 89.104C110.101 89.488 110.069 89.84 110.069 90.16C110.069 90.416 110.133 90.632 110.261 90.808C110.389 90.968 110.549 91.048 110.741 91.048C111.013 91.048 111.237 90.944 111.413 90.736C111.589 90.528 111.733 90.272 111.845 89.968C111.957 89.664 112.045 89.36 112.109 89.056C112.173 88.736 112.229 88.48 112.277 88.288C112.437 87.552 112.581 86.84 112.709 86.152C112.853 85.448 112.997 84.704 113.141 83.92C113.301 83.136 113.477 82.232 113.669 81.208C113.797 80.504 113.925 79.792 114.053 79.072C114.197 78.336 114.333 77.592 114.461 76.84L118.109 76.6C118.109 76.6 118.037 76.984 117.893 77.752C117.749 78.52 117.541 79.68 117.269 81.232C117.157 81.824 117.029 82.488 116.885 83.224C116.757 83.96 116.613 84.704 116.453 85.456C116.293 86.208 116.141 86.92 115.997 87.592C115.869 88.264 115.749 88.84 115.637 89.32C115.317 90.632 114.821 91.664 114.149 92.416C113.477 93.152 112.733 93.672 111.917 93.976C111.117 94.28 110.349 94.432 109.613 94.432ZM115.636 94.024C116.116 91.864 116.572 89.752 117.004 87.688C117.18 86.856 117.356 85.968 117.532 85.024C117.724 84.064 117.916 83.096 118.108 82.12C118.3 81.144 118.476 80.224 118.636 79.36C118.796 78.48 118.924 77.712 119.02 77.056C119.66 76.864 120.348 76.688 121.084 76.528C121.836 76.368 122.508 76.288 123.1 76.288C124.06 76.288 124.82 76.496 125.38 76.912C125.94 77.312 126.34 77.856 126.58 78.544C126.82 79.232 126.94 79.984 126.94 80.8C126.94 81.696 126.772 82.56 126.436 83.392C126.116 84.208 125.676 84.944 125.116 85.6C124.572 86.256 123.94 86.776 123.22 87.16C122.516 87.544 121.78 87.736 121.012 87.736H120.748C120.62 88.28 120.5 88.872 120.388 89.512C120.276 90.152 120.18 90.744 120.1 91.288C120.036 91.608 119.98 91.928 119.932 92.248C119.884 92.568 119.836 92.888 119.788 93.208L115.636 94.024ZM121.228 85.216C121.596 85.12 121.964 84.88 122.332 84.496C122.7 84.096 123.004 83.592 123.244 82.984C123.484 82.376 123.604 81.712 123.604 80.992C123.604 80.4 123.468 79.952 123.196 79.648C122.94 79.344 122.652 79.192 122.332 79.192C122.156 80.248 121.98 81.248 121.804 82.192C121.628 83.136 121.436 84.144 121.228 85.216ZM129.609 94.12C130.089 91.816 130.545 89.584 130.977 87.424C131.329 85.392 131.673 83.44 132.009 81.568C132.345 79.696 132.585 77.976 132.729 76.408C132.841 76.424 132.937 76.432 133.017 76.432C133.113 76.432 133.193 76.432 133.257 76.432H133.761C134.177 76.432 134.641 76.424 135.153 76.408C135.665 76.376 136.137 76.352 136.569 76.336C136.681 76.896 136.785 77.448 136.881 77.992C136.993 78.536 137.089 79.064 137.169 79.576C137.249 80.024 137.337 80.488 137.433 80.968C137.529 81.432 137.625 81.904 137.721 82.384C137.801 82.864 137.881 83.312 137.961 83.728C138.057 84.128 138.137 84.496 138.201 84.832C138.393 83.888 138.569 82.96 138.729 82.048C138.905 81.136 139.073 80.312 139.233 79.576L139.929 76.36L142.857 76C142.585 77.216 142.329 78.408 142.089 79.576C141.849 80.744 141.625 81.872 141.417 82.96C141.017 84.912 140.665 86.752 140.361 88.48C140.057 90.208 139.825 91.712 139.665 92.992C139.841 92.992 139.809 93.016 139.569 93.064C139.345 93.096 139.009 93.152 138.561 93.232C138.113 93.296 137.633 93.384 137.121 93.496C136.609 93.608 136.153 93.744 135.753 93.904C135.705 93.264 135.657 92.64 135.609 92.032C135.561 91.424 135.505 90.832 135.441 90.256C135.345 89.232 135.233 88.216 135.105 87.208C134.977 86.2 134.849 85.4 134.721 84.808C134.609 85.512 134.473 86.32 134.313 87.232C134.153 88.128 133.977 89.032 133.785 89.944L133.113 93.304L129.609 94.12ZM140.533 94.024L143.677 76.96L151.261 76.312C151.149 76.664 151.053 77.024 150.973 77.392C150.893 77.696 150.813 78.016 150.733 78.352C150.669 78.672 150.613 78.96 150.565 79.216C150.357 79.232 150.061 79.248 149.677 79.264C149.293 79.264 148.901 79.272 148.501 79.288C148.101 79.288 147.757 79.288 147.469 79.288C147.181 79.288 147.029 79.288 147.013 79.288L146.173 83.584L147.565 83.512C147.741 83.496 147.917 83.488 148.093 83.488C148.285 83.488 148.469 83.488 148.645 83.488C148.821 83.488 148.981 83.488 149.125 83.488C149.269 83.488 149.381 83.48 149.461 83.464C149.429 83.688 149.397 83.912 149.365 84.136C149.349 84.344 149.325 84.56 149.293 84.784L149.077 86.104C148.997 86.12 148.893 86.128 148.765 86.128C148.637 86.128 148.485 86.128 148.309 86.128C148.133 86.144 147.949 86.152 147.757 86.152C147.565 86.152 147.381 86.16 147.205 86.176C146.997 86.192 146.781 86.2 146.557 86.2C146.333 86.2 146.093 86.208 145.837 86.224L145.021 90.64L148.525 90.088L148.285 92.824L140.533 94.024ZM148.712 94.024L151.856 76.96L159.44 76.312C159.328 76.664 159.232 77.024 159.152 77.392C159.072 77.696 158.992 78.016 158.912 78.352C158.848 78.672 158.792 78.96 158.744 79.216C158.536 79.232 158.24 79.248 157.856 79.264C157.472 79.264 157.08 79.272 156.68 79.288C156.28 79.288 155.936 79.288 155.648 79.288C155.36 79.288 155.208 79.288 155.192 79.288L154.352 83.584L155.744 83.512C155.92 83.496 156.096 83.488 156.272 83.488C156.464 83.488 156.648 83.488 156.824 83.488C157 83.488 157.16 83.488 157.304 83.488C157.448 83.488 157.56 83.48 157.64 83.464C157.608 83.688 157.576 83.912 157.544 84.136C157.528 84.344 157.504 84.56 157.472 84.784L157.256 86.104C157.176 86.12 157.072 86.128 156.944 86.128C156.816 86.128 156.664 86.128 156.488 86.128C156.312 86.144 156.128 86.152 155.936 86.152C155.744 86.152 155.56 86.16 155.384 86.176C155.176 86.192 154.96 86.2 154.736 86.2C154.512 86.2 154.272 86.208 154.016 86.224L153.2 90.64L156.704 90.088L156.464 92.824L148.712 94.024ZM158.14 94.12C157.916 94.12 157.692 94.104 157.468 94.072C157.244 94.056 157.02 94.032 156.796 94L158.068 87.544C158.228 86.664 158.396 85.736 158.572 84.76C158.764 83.768 158.948 82.792 159.124 81.832C159.3 80.856 159.452 79.952 159.58 79.12C159.724 78.288 159.836 77.584 159.916 77.008C160.604 76.88 161.3 76.76 162.004 76.648C162.708 76.536 163.428 76.48 164.164 76.48C165.348 76.48 166.284 76.728 166.972 77.224C167.66 77.704 168.156 78.344 168.46 79.144C168.764 79.928 168.916 80.792 168.916 81.736C168.916 82.584 168.796 83.48 168.556 84.424C168.316 85.352 167.972 86.28 167.524 87.208C167.092 88.12 166.572 88.984 165.964 89.8C165.02 91.064 163.868 92.104 162.508 92.92C161.164 93.72 159.708 94.12 158.14 94.12ZM160.996 91.096C161.556 90.728 162.084 90.168 162.58 89.416C163.092 88.664 163.572 87.76 164.02 86.704C164.42 85.728 164.732 84.808 164.956 83.944C165.18 83.064 165.292 82.336 165.292 81.76C165.292 81.168 165.124 80.704 164.788 80.368C164.468 80.032 163.956 79.864 163.252 79.864C162.996 81.24 162.732 82.512 162.46 83.68C162.204 84.848 161.948 86.024 161.692 87.208C161.452 88.392 161.22 89.688 160.996 91.096ZM167.486 94.024L170.63 76.96L178.214 76.312C178.102 76.664 178.006 77.024 177.926 77.392C177.846 77.696 177.766 78.016 177.686 78.352C177.622 78.672 177.566 78.96 177.518 79.216C177.31 79.232 177.014 79.248 176.63 79.264C176.246 79.264 175.854 79.272 175.454 79.288C175.054 79.288 174.71 79.288 174.422 79.288C174.134 79.288 173.982 79.288 173.966 79.288L173.126 83.584L174.518 83.512C174.694 83.496 174.87 83.488 175.046 83.488C175.238 83.488 175.422 83.488 175.598 83.488C175.774 83.488 175.934 83.488 176.078 83.488C176.222 83.488 176.334 83.48 176.414 83.464C176.382 83.688 176.35 83.912 176.318 84.136C176.302 84.344 176.278 84.56 176.246 84.784L176.03 86.104C175.95 86.12 175.846 86.128 175.718 86.128C175.59 86.128 175.438 86.128 175.262 86.128C175.086 86.144 174.902 86.152 174.71 86.152C174.518 86.152 174.334 86.16 174.158 86.176C173.95 86.192 173.734 86.2 173.51 86.2C173.286 86.2 173.046 86.208 172.79 86.224L171.974 90.64L175.478 90.088L175.238 92.824L167.486 94.024ZM176.914 94.12C176.69 94.12 176.466 94.104 176.242 94.072C176.018 94.056 175.794 94.032 175.57 94L176.842 87.544C177.002 86.664 177.17 85.736 177.346 84.76C177.538 83.768 177.722 82.792 177.898 81.832C178.074 80.856 178.226 79.952 178.354 79.12C178.498 78.288 178.61 77.584 178.69 77.008C179.378 76.88 180.074 76.76 180.778 76.648C181.482 76.536 182.202 76.48 182.938 76.48C184.122 76.48 185.058 76.728 185.746 77.224C186.434 77.704 186.93 78.344 187.234 79.144C187.538 79.928 187.69 80.792 187.69 81.736C187.69 82.584 187.57 83.48 187.33 84.424C187.09 85.352 186.746 86.28 186.298 87.208C185.866 88.12 185.346 88.984 184.738 89.8C183.794 91.064 182.642 92.104 181.282 92.92C179.938 93.72 178.482 94.12 176.914 94.12ZM179.77 91.096C180.33 90.728 180.858 90.168 181.354 89.416C181.866 88.664 182.346 87.76 182.794 86.704C183.194 85.728 183.506 84.808 183.73 83.944C183.954 83.064 184.066 82.336 184.066 81.76C184.066 81.168 183.898 80.704 183.562 80.368C183.242 80.032 182.73 79.864 182.026 79.864C181.77 81.24 181.506 82.512 181.234 83.68C180.978 84.848 180.722 86.024 180.466 87.208C180.226 88.392 179.994 89.688 179.77 91.096ZM188.131 88.456C188.387 87.464 188.635 86.48 188.875 85.504C189.115 84.528 189.355 83.552 189.595 82.576C189.819 81.6 190.051 80.624 190.291 79.648C190.547 78.656 190.803 77.672 191.059 76.696C191.971 76.552 192.803 76.432 193.555 76.336C194.307 76.24 194.923 76.152 195.403 76.072C194.539 78.088 193.747 80.12 193.027 82.168C192.323 84.2 191.619 86.248 190.915 88.312C190.451 88.312 189.987 88.328 189.523 88.36C189.059 88.392 188.595 88.424 188.131 88.456ZM188.083 94.552C187.603 94.552 187.203 94.432 186.883 94.192C186.579 93.968 186.347 93.688 186.187 93.352C186.043 93 185.971 92.648 185.971 92.296C185.971 91.656 186.179 91.104 186.595 90.64C187.027 90.16 187.619 89.92 188.371 89.92C189.299 89.92 189.995 90.144 190.459 90.592C190.923 91.024 191.155 91.52 191.155 92.08C191.155 92.72 190.891 93.296 190.363 93.808C189.835 94.304 189.075 94.552 188.083 94.552Z" fill="black"/>
</svg>
